<?xml version="1.0" encoding="UTF-8"?>
<svg id="Layer_1" data-name="Layer 1" xmlns="http://www.w3.org/2000/svg" version="1.1" viewBox="0 0 512 512">
  <defs>
    <style>
      .cls-1 {
        fill: #000;
        stroke-width: 0px;
      }
    </style>
  </defs>
  <path class="cls-1" d="M301.5,183.6c17.5-13.9,27.9-34.8,27.9-57.4s3.6-8.1,8.1-8.1,6.2-2.7,7.1-6.1c.9-3.4-1.2-7.3-4.3-9-2.4-1.3-7.1-4-13.3-5.9,1.6-6,2.4-12.2,2.4-18.5,0-40.5-32.9-73.4-73.4-73.4s-73.4,32.9-73.4,73.4.9,12.5,2.4,18.5c-6.4,2-11.4,4.7-14.2,6.3-3.1,1.7-4.7,5.3-3.9,8.7s4,5.9,7.5,5.9,8.1,3.6,8.1,8.1c0,22.6,10.4,43.5,27.9,57.4-68.9,19.8-119.3,83.1-119.3,158.3s73.8,164.8,164.8,164.8,164.8-73.8,164.8-164.8-50.5-138.6-119.3-158.3h0ZM286.5,102.9c-.1,0-.3.2-.4.2,0,0,0-.2-.1-.2h.5ZM211.9,61.7c4.7-12.8,14.8-22.8,27.7-27.2,4-1.4,8.5.7,9.8,4.8,1.4,4-.8,8.5-4.8,9.8-8.4,2.9-15.2,9.6-18.2,17.9-1.1,3.1-4.1,5.1-7.3,5.1s-1.8-.2-2.7-.5c-4-1.5-6.1-5.9-4.6-9.9h0ZM226.1,102.9c0,0,0,.2-.1.2-.1,0-.3-.2-.4-.2h.5ZM198.1,126.2c0-5.7-2.1-11-5.5-15.1,4.1-.9,8.9-1.1,13.9,0,9.2,2.2,14.7,7.8,17.8,10.9,2.2,2.2,5.5,2.9,8.5,1.7,2.9-1.2,4.8-4,4.8-7.2,0-6.2,9.7-18.4,18.4-27.3,8.7,8.9,18.4,21,18.4,27.3s2,5.9,4.9,7.1c2.9,1.2,6.3.4,8.5-1.8,3-3,8.5-8.6,17.6-10.7,5-1.2,9.8-.9,13.9,0-3.4,4.1-5.5,9.4-5.5,15.1,0,18.8-9,36.3-24.3,47.1h-67.2c-15.2-10.9-24.2-28.4-24.2-47.1h0ZM256,475.3c-73.6,0-133.3-59.7-133.3-133.3s59.7-133.3,133.3-133.3,133.3,59.7,133.3,133.3-59.7,133.3-133.3,133.3h0Z"/>
</svg>