<?xml version="1.0" encoding="UTF-8"?>
<svg id="Layer_1" data-name="Layer 1" xmlns="http://www.w3.org/2000/svg" viewBox="0 0 512 512">
  <defs>
    <style>
      .cls-1 {
        fill: #000;
        stroke-width: 0px;
      }
    </style>
  </defs>
  <path class="cls-1" d="M13.47,267.71c0-7.45,0-14.9,0-22.35.22-2.69.55-5.38.64-8.07.4-12,7.4-21.36,18.95-24.66,2.85-.82,2.2-3.01,2.65-4.7.24-.88-.4-2.43-1.16-3.08-8.06-6.82-11.3-17.21-7.63-27.01,3.2-8.55,6.88-16.94,10.69-25.25,1.25-2.73,3.31-5.24,5.47-7.37,5.34-5.26,11.92-7.35,19.41-6.66,2.89.26,6.07-3.82,4.67-6.02-6.37-10.02-3.71-23.33,4.26-31.26,8.69-8.64,17.5-17.16,26.13-25.85,7.76-7.81,21.79-11.89,33.03-5.02.89.55,3.16-.84,4.61-1.65.66-.37,1.33-1.58,1.22-2.3-1.64-10.88,5.02-21,13.8-24.94,8.83-3.96,17.73-7.93,26.93-10.86,10.19-3.25,19.37-.56,26.54,7.69,1.03,1.18,1.88,1.82,3.4,1.12,1.63-.74,3.78.08,4.6-2.77,3.02-10.5,10.46-16.22,21.01-17.99,3.91-.66,7.9-.79,11.86-1.16,7.63,0,15.26,0,22.89,0,2.6.22,5.2.55,7.81.63,12.13.38,21.97,7.45,25.07,18.53.84,3.01,3.17,2.01,4.85,2.81,1.52.73,2.23-.14,3.12-1.18,6.59-7.66,15.07-10.49,24.72-8.16,10.5,2.54,20.55,6.63,29.94,11.99,9.22,5.27,13.71,13.4,12.64,24.28-.08.78.71,2.02,1.44,2.43,1.48.84,2.56,2.92,4.95,1.44,9.41-5.85,22.23-4.08,29.91,3,10.2,9.41,20.14,19.14,29.69,29.21,7.74,8.17,8.87,19.91,3.76,29.02-.73,1.3-1.55,2.39-.26,3.87,1.3,1.49,1.83,3.47,4.69,3.22,11.54-.98,19.89,4.25,24.84,14.42,3.92,8.05,7.32,16.37,10.47,24.75,3.63,9.65.54,20.41-7.53,26.71-2.42,1.89-.99,3.62-.93,5.52.06,1.74,1.19,2.2,2.58,2.6,10.49,3.07,16.36,10.26,18.16,20.85.63,3.73.78,7.54,1.15,11.31v22.89c-.22,2.42-.56,4.84-.63,7.26-.38,12.17-7.34,21.59-18.98,24.95-2.89.83-2.14,3.05-2.63,4.72-.25.84.47,2.37,1.23,3.04,7.18,6.25,10.44,14.08,8.36,23.34-1.4,6.22-3.98,12.2-6.31,18.17-1.48,3.79-3.26,7.49-5.26,11.04-5.42,9.66-13.57,14.68-24.84,13.63-2.49-.23-3.2,1.3-3.99,2.84-.49.96-.99,2.53-.54,3.25,6.23,10.05,3.63,23.16-4.03,30.87-8.57,8.63-17.14,17.27-25.93,25.67-9.84,9.4-20.95,12.16-33.52,5.44-1.81-.97-6.12,2.15-5.91,4.17,1.13,10.87-4.07,20.48-14.3,25.15-8.39,3.84-16.97,7.31-25.64,10.46-9.8,3.56-20.71.44-27.11-7.44-1.44-1.78-2.76-1.51-4.44-1.12-1.73.4-3.18.58-3.87,2.93-3.06,10.4-10.47,16.79-20.95,17.54-14.45,1.03-29.03,1-43.52.46-12.44-.46-21-7.47-24.01-18.26-.83-2.98-3.14-2.05-4.82-2.85-1.71-.81-2.39.29-3.32,1.35-6.42,7.33-14.65,10.26-24,8.09-11.06-2.56-21.66-6.81-31.4-12.64-8.72-5.22-12.81-13.29-11.76-23.69.08-.79-.68-2.03-1.4-2.45-1.48-.85-2.53-2.84-4.96-1.5-10.36,5.68-20.77,4.81-29.42-2.7-10.81-9.38-20.91-19.64-30.68-30.12-7.63-8.19-8.21-19.4-2.97-29.12.43-.79.34-2.27-.13-3.04-.96-1.55-1.47-3.54-4.29-3.31-11.21.95-20.36-4.16-25.16-14.37-3.81-8.1-7.28-16.39-10.45-24.76-3.65-9.63-.59-20.48,7.45-26.73,2.4-1.87,1.07-3.58,1-5.49-.07-1.96-1.44-2.21-2.85-2.66-10.27-3.23-16.14-10.33-17.91-20.82-.63-3.73-.78-7.54-1.15-11.31ZM141.61,91.23c-.09,7.38-3.02,13.64-8.23,18.63-8.59,8.22-17.21,16.42-25.43,25.01-7.11,7.42-15.38,10.26-25.33,8.15-1.93-.41-2.34.79-3.13,1.83-.82,1.08-1.16,1.94-.17,3.33,6.35,8.87,6.72,18.21,2.11,27.99-2.2,4.66-4.28,9.4-6.02,14.25-3.78,10.53-10.76,17.27-21.94,19.16-2.25.38-2.14,1.94-2.66,3.43-.55,1.6.42,2.05,1.44,2.73,8.02,5.35,11.95,12.81,11.86,22.5-.12,11.8-.22,23.6.02,35.39.2,10.05-3.66,17.79-12.07,23.16-1.62,1.04-1.29,2.13-1.05,3.43.24,1.27.56,2.23,2.27,2.51,10.6,1.73,17.6,7.89,21.53,17.79,2.2,5.55,4.48,11.08,6.94,16.52,4.29,9.47,3.71,18.49-2.25,27.02-.98,1.4-.95,2.28-.04,3.56.93,1.3,1.58,2.18,3.65,1.8,9.37-1.72,17.48.73,24.3,7.65,8.47,8.6,17.06,17.09,25.83,25.39,6.94,6.57,9.44,14.37,7.81,23.64-.27,1.55-.32,2.69,1.32,3.63,1.55.89,2.57,1.24,4.31.06,8.49-5.74,17.53-6.19,26.91-2.23,5.67,2.39,11.35,4.77,17.08,6.99,9.68,3.74,16.11,10.28,17.98,20.71.37,2.05,1.56,2.4,3.23,2.9,1.87.56,2.39-.53,3.18-1.66,5.54-7.9,13.24-11.52,22.8-11.48,11.71.05,23.42.32,35.12,0,10.17-.27,18.26,3.18,24.02,11.61,1.02,1.49,1.98,1.7,3.57,1.4,1.65-.31,2.42-1.06,2.74-2.74,1.95-10.52,8.39-17.1,18.23-20.81,5.67-2.14,11.25-4.54,16.82-6.92,9.48-4.05,18.57-3.51,27.13,2.32,1.67,1.13,2.62.69,4.07-.13,1.6-.91,1.7-2,1.41-3.59-1.71-9.4,1.02-17.25,7.98-23.86,8.55-8.13,17.07-16.31,25.22-24.84,6.9-7.22,15.05-9.81,24.63-8.08,2.01.36,2.71-.33,3.69-1.68,1.02-1.41.88-2.36-.12-3.79-5.75-8.28-6.38-17.09-2.41-26.31,2.54-5.9,5.05-11.82,7.5-17.76,3.95-9.57,10.92-15.42,21.15-17.11,2.03-.33,2.02-1.59,2.48-2.95.52-1.52-.03-2.22-1.28-3.04-8.07-5.28-12.01-12.75-11.93-22.45.1-11.7.25-23.42-.03-35.11-.24-10.25,3.65-18.08,12.17-23.72.61-.4.97-1.52,1.03-2.34.16-2.41-1.21-3.33-3.52-3.77-9.79-1.86-16.36-7.66-20.1-16.84-2.39-5.87-4.89-11.69-7.41-17.5-4.03-9.31-3.43-18.2,2.42-26.55.94-1.34,1.14-2.25.13-3.55-.95-1.23-1.52-2.23-3.63-1.82-9.51,1.87-17.62-.85-24.48-7.82-8.41-8.53-16.92-16.98-25.63-25.19-7.04-6.63-9.57-14.51-7.84-23.87.31-1.66-.01-2.64-1.52-3.54-1.45-.87-2.41-1.23-4.05-.09-8.35,5.8-17.29,6.35-26.6,2.5-6.02-2.49-12.04-4.98-18.09-7.4-9.34-3.75-15.51-10.22-17.33-20.31-.39-2.17-1.61-2.59-3.4-3.1-1.94-.55-2.35.75-3.11,1.81-5.62,7.83-13.26,11.42-22.87,11.31-11.8-.14-23.6-.29-35.39,0-9.85.25-17.71-3.13-23.43-11.17-1.05-1.48-1.85-2.28-3.89-1.81-1.92.45-2.38,1.51-2.7,3.13-1.88,9.73-7.75,16.14-16.74,19.88-6.35,2.64-12.72,5.24-19.1,7.81-8.94,3.6-17.57,3.06-25.67-2.31-1.75-1.16-2.88-1.41-4.76-.2-1.93,1.24-1.45,2.56-1.16,4.18.26,1.42.29,2.88.43,4.32ZM93.61,385.87c-.22.1-.44.2-.66.29,1.1,3.76,1.13,7.32-2.31,9.85-3.41,2.51-6.91,1.75-10.51-.13.8,1.73,1.6,3.39,2.82,4.61,8.94,8.89,17.93,17.72,26.99,26.49,1.09,1.05,2.61,1.65,3.93,2.46-1.86-3.89-2.46-7.38.31-10.73,2.72-3.29,6.34-3.12,10.2-2.41-10.26-10.14-20.52-20.29-30.78-30.43Z"/>
</svg>