<?xml version="1.0" encoding="UTF-8"?>
<svg id="Layer_1" data-name="Layer 1" xmlns="http://www.w3.org/2000/svg" width="332.855394" height="507.645096" viewBox="0 0 332.855394 507.645096">
  <path d="M210.869101,125.49985c-.350892,9.91726-.742646,19.833309-1.032446,29.752356-.114478,3.918804,1.471589,5.02791,5.091287,3.235432,5.373722-2.661054,10.509538-5.79899,15.851626-8.52836,7.981949-4.078169,16.019614-8.051928,24.102741-11.925799,5.036534-2.413779,8.547471-1.545018,11.976155,2.959849,5.699723,7.488659,11.345687,15.022064,16.84759,22.656742,14.177681,19.673587,27.862926,39.673703,39.586259,60.943828,1.143785,2.075271,2.21523,4.190254,3.327723,6.282864,2.723606,5.123138,2.845387,10.198452.402537,15.566612-12.514301,27.500039-24.903993,55.056789-37.337066,82.593776-.627019,1.388745-1.277747,2.767452-1.874406,4.169124-1.346452,3.163153.140487,5.458896,3.548848,5.380434,5.763394-.132656,11.524271-.413693,17.287883-.47724,2.188599-.024145,4.42701.170163,6.564647.628728,6.649759,1.426531,10.015828,6.19828,11.234316,12.386709,2.287384,11.617246,4.216543,23.305838,6.22373,34.976936.675992,3.930566-.455923,6.898013-4.156943,9.192855-9.793864,6.072771-19.37027,12.496247-29.033311,18.779981-4.68502,3.046655-5.071958,4.988959-1.78429,9.47905.949136,1.296267,2.064488,2.470661,3.101067,3.703132,5.03526,5.986664,4.943093,10.119834-.561638,15.767166-4.438849,4.553887-8.870831,9.131762-13.560979,13.420056-11.136277,10.182169-22.465867,20.152629-33.632659,30.301891-5.549261,5.043556-11.654007,7.768281-19.381519,6.550042-7.771637-1.225262-15.071535.928751-22.220131,3.897907-7.258475,3.01496-14.657717,5.689282-21.949132,8.627425-3.172973,1.278648-5.73754.693269-8.033781-1.761419-2.781311-2.973196-5.590683-5.92178-8.446681-8.823132-5.123169-5.204397-12.421357-5.971064-18.572295-2.064954-6.583462,4.180808-13.188148,8.328304-19.797573,12.467969-4.427927,2.773387-5.763907,2.711674-10.061912-.44542-6.898277-5.067297-13.747285-10.202647-20.691163-15.206366-2.169488-1.563351-3.666403-3.414887-4.279376-6.036818-.3838-1.641659-.978128-3.234345-1.48248-4.847601-1.448563-4.633126-5.082477-5.568278-8.683655-2.227411-2.548813,2.364573-5.0746,4.754068-7.629969,7.111494-3.496845,3.226079-5.753808,3.688465-9.764328.991148-7.799449-5.245664-15.562401-10.576845-23.019908-16.291048-7.666614-5.874485-15.03451-12.15014-22.379108-18.430425-7.601404-6.499857-8.756221-14.026504-3.853082-22.684227,3.841577-6.783224,7.665433-13.57692,11.436533-20.399515,3.537296-6.399611,3.167597-12.619456-1.02418-18.628866-10.085629-14.458904-20.150399-28.932381-30.231585-43.394392-2.965575-4.254236-3.695209-9.058893-2.27786-13.831264,4.811136-16.19969,9.86041-32.330021,14.96321-48.441056,1.843036-5.818955,7.402653-9.033847,13.484839-7.672386,8.078303,1.808249,16.072091,4.000421,24.079816,6.112546,1.62881.429634,3.112518.839008,4.489283-.493181,1.495889-1.447475,1.068881-3.011914.39407-4.670136-13.935969-34.245166-27.861123-68.494775-41.775099-102.748875-3.183802-7.838059-6.255076-15.722419-9.50206-23.533971-1.597362-3.842905-.228397-7.565645.306292-11.236802,2.330562-16.001746,4.806715-31.985453,7.508974-47.928438,1.184998-6.991344,2.885923-13.907831,4.624107-20.789739,2.398374-9.495814,8.629733-16.346229,16.079416-22.237688,12.299344-9.72672,24.577914-19.480902,36.964437-29.0957,6.263831-4.862152,12.893392-9.25822,19.090305-14.200178,7.825272-6.240541,16.181744-5.16719,22.594313-.8409,11.798021,7.959641,23.58209,15.967257,35.006519,24.447219,18.750522,13.917876,36.321913,29.216323,52.400226,46.211649,7.485971,7.912917,11.062568,16.994463,10.360692,27.907005-.50067,7.783539-.566144,15.595076-.825801,23.394121-.024331-.000917-.048662-.001818-.073025-.002735ZM107.94551,354.400328c6.447419-5.089578,13.382223-5.82054,20.874176-3.865092,1.212677.316555,2.9133-.159722,4.050979-.836615,3.267268-1.944012,4.267225-5.082275,3.815979-8.747808-.268855-2.184217-.601367-4.360884-.84802-6.547432-2.278916-20.203094-4.515401-40.411004-6.824258-60.61068-2.106811-18.431948-4.316447-36.852119-6.428945-55.283446-2.305578-20.115744-4.587571-40.234378-6.794644-60.361091-.468803-4.274947-2.132308-7.690238-5.516866-10.425264-14.088963-11.385167-28.105818-22.859533-42.158533-34.289618-5.295787-4.307451-8.440016-4.533781-13.446205-.051459-9.851895,8.820957-19.49661,17.87494-29.157593,26.906798-4.938043,4.61647-5.692754,8.584838-3.121016,14.90855,14.249455,35.038386,28.393117,70.120415,42.805983,105.091479,7.280305,17.664846,14.911797,35.189267,22.654908,52.65732,4.486315,10.12086,9.486927,20.014628,14.30291,29.987977,1.830746,3.791259,3.792627,7.519189,5.791144,11.46638ZM198.998817,113.511281c0-.898919-.023834-2.001966.006432-3.103537.032566-1.186901.204998-2.375775.160406-3.557906-.140736-3.729344-2.111752-4.845007-5.351224-3.062488-.66583.366382-1.281258.826236-1.910794,1.256399-3.570041,2.439276-7.111556,4.921279-10.709905,7.317998-15.7307,10.477547-31.528738,20.854972-47.195238,31.427466-6.949285,4.689728-9.74054,11.432307-8.662104,19.789945.802278,6.217546,1.505413,12.44819,2.2177,18.677001,1.751227,15.314536,3.441486,30.636158,5.231059,45.946188,2.624961,22.456949,5.342336,44.903177,7.969333,67.359908,2.292807,19.599909,4.502536,39.209483,6.804619,58.808304.1183,1.007182.76098,1.952807,1.159525,2.927081,1.042576-.593862,2.267046-1.008239,3.078196-1.830405.8648-.876546,1.551046-2.067751,1.944121-3.245438,1.227997-3.679174,2.786889-7.347441,3.307758-11.144729,1.644766-11.990884,3.140345-24.015142,4.205465-36.069635,1.700685-19.247775,3.111104-38.523143,4.45159-57.800221,1.146939-16.494088,2.081532-33.003807,2.985874-49.513433.290778-5.308559,2.50924-9.432189,6.717237-12.512265,5.335003-3.905023,10.72914-7.729687,16.11554-11.564,3.222443-2.293894,5.231587-5.29557,5.400446-9.314355.70834-16.86075,1.380261-33.723039,2.073965-50.791879ZM173.758692,377.708373c1.738518-3.823048,3.411966-7.22159,4.844152-10.718886,2.123436-5.185131,5.748043-8.877916,10.613606-11.521692,8.032445-4.364488,16.004512-8.840347,24.044507-13.19079,4.958288-2.68293,8.514936-6.631923,9.84638-12.03821,1.203168-4.885326,1.618944-9.965239,2.370229-14.961128,2.882241-19.167199,5.640495-38.354285,8.7094-57.491559.959483-5.983121-.733417-10.643562-5.049989-14.598055-11.625543-10.650336-23.235424-21.317856-34.890114-31.936216-2.81568-2.565344-5.714856-5.049492-8.695261-7.420621-3.076829-2.447852-4.69369-1.7571-5.241656,2.045004-.036264.25164-.090426.501975-.107673.754859-.565336,8.285856-1.075453,16.575845-1.702005,24.857009-.856782,11.323811-1.774191,22.643209-2.715993,33.960307-1.096242,13.172798-2.289901,26.337578-3.361516,39.512365-1.003096,12.332454-2.007793,24.666523-2.807725,37.013115-.498635,7.696065-.798161,15.415652-.840468,23.126602-.02503,4.560661,1.700265,8.685566,4.984127,12.607897ZM255.28034,355.855448c1.090772-1.271128,2.151341-2.362615,3.047028-3.575852,3.924817-5.316141,8.088223-10.483933,11.648351-16.03686,18.738807-29.228364,32.618329-60.806138,44.643395-93.259835,1.27262-3.43465,1.06902-6.899846-.638361-10.086864-3.119711-5.823057-6.447994-11.534308-9.686409-17.293849-1.738642-3.09221-4.444349-4.301407-7.882076-3.965214-6.99686.684351-13.991421,1.393779-20.982967,2.130365-3.64291.383768-6.600351,2.09146-8.831584,4.971122-6.334696,8.175822-12.613335,16.395148-18.954495,24.565935-2.833392,3.650928-4.359889,7.811382-4.989549,12.322789-1.509655,10.816366-3.204109,21.614461-4.377571,32.468209-1.162554,10.752384-2.01017,21.552032-2.560714,32.353141-.440293,8.638239,2.423925,16.320755,8.315687,22.794696,3.707296,4.073632,7.33585,8.218953,11.249263,12.612216ZM133.660405,89.661905c-.803102-2.822143-1.330604-5.757102-2.455108-8.44202-5.132957-12.255754-10.41083-24.4511-15.682503-36.648325-3.056195-7.071198-6.104793-14.149255-9.380917-21.118879-.675961-1.438044-2.194052-3.012606-3.613654-3.368345-.846963-.212253-2.590608,1.626603-3.347378,2.892433-1.688364,2.824039-3.083743,5.833086-4.470296,8.826154-9.727241,20.997821-16.708051,43.042568-24.611071,64.735383-1.117108,3.066372-.417344,5.865924,1.710737,8.273892,1.12006,1.267353,2.309944,2.499933,3.610282,3.576784,11.287764,9.347683,22.569127,18.703911,33.934982,27.956133,5.428987,4.419397,7.813603,3.640595,10.025244-2.893552,4.009448-11.845642,8.070915-23.673775,12.039578-35.533028.877198-2.621263,1.458242-5.341653,2.240105-8.256631ZM262.155855,204.109021c-.247911-.081912-.495823-.163855-.743734-.245767,0-.423917.035052-.851158-.005127-1.271221-1.185239-12.400211-2.374206-24.800049-3.572154-37.199033-.301235-3.118018-.486656-6.257414-.99612-9.342245-.499458-3.024344-2.116444-3.888149-4.871715-2.891625-1.588491.574518-3.208646,1.133624-4.682876,1.940268-8.590105,4.700138-17.310163,9.194533-25.662736,14.289036-10.414606,6.352222-20.547646,13.170032-30.736217,19.887005-4.24047,2.79559-4.201783,4.779098-.494797,8.112772,14.689351,13.210102,29.346665,26.456049,43.974302,39.734469,3.473462,3.153054,5.751244,3.322907,8.460525-.395204,5.383914-7.388584,10.688806-14.854698,15.583143-22.569935,1.873536-2.953401,2.534177-6.676297,3.747507-10.048519ZM20.772965,130.243041c.222073.148007.444146.29603.666211.444037.776618-.572872,1.597401-1.094968,2.323104-1.726352,8.499624-7.394612,16.783531-15.055236,25.544405-22.125168,5.904441-4.764804,10.369113-10.158739,13.137171-17.309682,4.975923-12.854689,10.447964-25.518062,15.759288-38.24192,3.746745-8.975691,7.592183-17.910194,11.33666-26.88681.568133-1.361982,1.695682-2.841774.112924-4.400115-.371168.154144-.729968.216596-.975518.417461-17.108289,13.99494-34.221285,27.984209-51.295136,42.021076-3.174309,2.60968-5.169485,6.046567-5.971181,10.079795-2.91525,14.666201-5.829194,29.333116-8.626268,44.022094-.862959,4.531901-1.351618,9.135056-2.011661,13.705583ZM126.685001,491.007323c.48779-4.475082.956966-8.66776,1.39976-12.863111,1.306335-12.377045,2.608755-24.754463,3.899724-37.133093.763544-7.321401,1.540745-14.641714,2.232491-21.970014.254328-2.694241-.337561-5.252904-2.168369-7.346136-2.118324-2.421905-4.240175-4.851548-6.515891-7.122028-2.688834-2.682526-6.015905-3.679143-9.777876-2.982176-7.893496,1.462484-15.788467,2.918815-23.668632,4.450751-3.418025.664432-3.836799,1.567391-2.746306,4.951297,6.087158,18.889238,12.329004,37.730933,18.176051,56.694315,3.184159,10.327069,9.6918,17.625755,19.169048,23.320195ZM185.449522,489.748749c.145055-.396758.29443-.767102.416925-1.146085,6.755878-20.900185,13.584595-41.777344,20.185941-62.726192,1.04528-3.317127,1.355992-6.946924,1.48551-10.451398.17122-4.631666-2.198853-8.610117-4.123009-12.655441-4.06835-8.553251-8.111218-17.118776-12.242369-25.641543-.381873-.787797-1.242509-1.480632-2.049106-1.843984-.250708-.112893-1.30907.910168-1.568354,1.579479-1.73656,4.482788-4.100915,8.888357-4.866122,13.548145-1.794452,10.92724-2.850731,21.977875-4.121673,32.988301-1.533551,13.28566-2.628021,26.633126-4.571273,39.85701-1.67699,11.412248,2.821817,19.664979,11.453531,26.491707ZM194.090123,490.306472c.156024.140083.312018.280167.468011.420188,1.853741-1.312022,3.782559-2.530697,5.549292-3.951044,12.955308-10.415196,23.153294-23.324234,32.392667-36.94413,6.551316-9.657417,12.388916-19.813732,18.253457-29.916662,3.391022-5.841795,6.249957-11.996384,9.254258-18.056849,1.242136-2.505713.179579-4.501433-2.252084-4.128603-5.755967.882481-11.554849,1.71717-17.176077,3.184967-6.350296,1.658159-10.786628,6.55433-15.671519,10.584924-5.026807,4.147745-8.464751,9.383682-10.457954,15.617045-4.582102,14.329852-9.250839,28.631985-13.872624,42.949128-2.176542,6.742516-4.325801,13.493734-6.487427,20.241036ZM192.96203,84.077126c-.89199-1.27088-1.276442-1.989148-1.817819-2.558026-1.636003-1.718956-3.30622-3.407475-5.010089-5.059358-20.73863-20.105691-43.207775-38.110126-66.734195-54.819544-1.200108-.852362-2.792436-1.152509-4.20214-1.709758.156335,1.526319-.055778,3.211924.524799,4.554827,7.554661,17.474617,15.191078,34.914174,22.879343,52.330588,2.290989,5.189808,6.480995,7.679766,12.111748,7.628664,7.715533-.070042,15.42976-.278442,23.145293-.355196,6.095175-.060642,12.1915-.012197,19.103061-.012197ZM79.81317,393.138755c.521071-.671797.938695-1.085956,1.21145-1.580069,6.551192-11.86783,9.354364-24.511679,7.098147-37.956253-2.351537-14.012614-9.393036-26.395656-14.447981-39.461775-1.316497-3.402954-5.709449-4.408738-8.664575-2.054762-4.953596,3.945761-9.151168,8.616363-10.168683,15.266806-.537975,3.516251-.907589,7.058854-1.475815,10.569729-1.143863,7.067585.079535,13.611195,3.963971,19.669485,4.070913,6.349084,8.054865,12.753884,12.084325,19.129599,3.42323,5.416542,6.85715,10.826341,10.399162,16.417241ZM232.355225,371.249162c-.430225.000901-.860449.001802-1.290674.002735,0-6.355641.050496-12.71184-.021628-19.066673-.035145-3.096872-2.081485-4.322724-4.753291-2.875684-9.826989,5.322169-19.617622,10.711335-29.435102,16.051123-1.951657,1.0615-2.73759,2.509939-1.664281,4.581201,6.07274,11.718952,12.142745,23.439551,18.284997,35.122147,1.344774,2.557762,2.775314,2.845853,5.164001,1.14537,3.174247-2.259728,6.335784-4.555471,9.332938-7.040613,2.87267-2.381912,4.361971-5.579683,4.376576-9.361495.023865-6.185943.006463-12.372073.006463-18.55811ZM135.217355,489.82196c.205728.097884.41144.195831.617152.293715,1.993592-2.785382,4.162412-5.462936,5.953181-8.373175,14.954307-24.303232,21.800208-51.339922,26.429108-79.098686.151736-.909982-.234223-2.407114-.880819-2.810055-.62214-.387684-2.095516.015661-2.873291.544423-5.814574,3.953343-11.558795,8.01063-17.304881,12.063971-2.700471,1.904983-4.327758,4.540338-4.690381,7.814644-.93192,8.41469-1.755981,16.84122-2.646278,25.260603-1.130579,10.691603-2.295697,21.379569-3.421505,32.071638-.428966,4.073974-.79019,8.155095-1.182286,12.232922ZM192.160032,94.441795c-.135018-.331626-.270036-.663236-.405023-.994861-2.778142,0-5.55647.022964-8.334363-.003978-11.952041-.115938-23.903771-.28879-35.856061-.347209-3.824369-.018691-6.095098,1.775512-7.381716,5.38755-3.741603,10.504131-7.487866,21.006615-11.216169,31.515469-.677312,1.9091-1.356194,3.824587-1.87509,5.779397-.197959.745754.051459,1.610243.096983,2.420631.872226-.11381,1.752004-.189833,2.612655-.361581.307559-.061387.571737-.350193.850956-.542123,19.685861-13.531505,39.374783-27.058566,59.045278-40.612366.9056-.624004,1.645481-1.488462,2.46255-2.240928ZM47.842306,324.859729c-.623896-1.564998-1.167728-4.135719-2.535218-6.146293-5.332587-7.840312-10.904042-15.519099-16.458423-23.20609-.525941-.727855-1.689071-1.64517-2.315048-1.491476-.84203.206676-1.81869,1.251862-2.101272,2.139657-3.457396,10.862108-6.83835,21.749168-10.147195,32.657639-1.134611,3.740546.524621,7.239023,4.092479,8.462887,6.385115,2.190308,12.813594,4.26592,19.278833,6.20667,3.874003,1.162896,7.388234-.702498,8.104716-4.365265.859315-4.392797,1.314927-8.864554,2.081128-14.257728ZM141.050573,405.637332c2.276011-1.000595,4.218175-1.618229,5.914462-2.642875,5.942849-3.589835,11.802371-7.317641,17.690607-10.997747,3.02147-1.88842,3.109177-3.499782.097915-5.508305-12.403303-8.273053-24.838706-16.498128-37.297927-24.686659-.672589-.442064-2.078502-.812315-2.423645-.476557-.593489.577362-.914752,1.763905-.83674,2.649463.564559,6.407442,1.517175,12.790334,1.843238,19.206601.385695,7.589635,2.881697,14.077839,8.741282,18.978608,1.790241,1.497256,4.14111,2.324238,6.270808,3.47747ZM275.027107,401.672615c.512416.170412.674376.279452.826423.267022,13.398025-1.094004,25.699248-5.74304,37.502537-11.830665,4.393263-2.265819,6.41347-7.184208,5.536738-12.123851-.916321-5.162727-1.963838-10.303328-2.801945-15.478205-.321962-1.988014-1.191143-3.685607-3.091838-3.790047-1.439147-.079084-3.321291.675992-4.36222,1.708935-9.326381,9.254537-18.509448,18.653415-27.735738,28.00882-1.691471,1.715212-3.807418,3.176577-2.772113,6.201791.224916.657347-.280974,1.652317-.637522,2.402794-.718129,1.511582-1.565154,2.961978-2.464322,4.633406ZM17.750361,345.127488c5.714025,8.163827,11.241153,15.86014,16.556734,23.699861,9.098521,13.419031,20.812656,23.766827,35.461191,30.751941,1.612496.768904,3.287559,1.406612,4.9336,2.105164-1.427121-3.313491-3.220066-6.13958-5.008132-8.968746-5.068012-8.018803-10.181066-16.009608-15.190239-24.065016-8.374154-13.466792-21.577715-19.421977-36.753155-23.523204ZM52.817809,437.596574c1.264758-.375813,3.157731-.533454,4.578093-1.435418,4.503158-2.859494,8.143349-6.613869,10.112392-11.691731,1.70547-4.398142.724514-8.316091-2.584176-11.614977-3.568192-3.557549-8.059712-5.569459-12.785285-6.939559-.981608-.28461-2.960191.593054-3.528634,1.518853-4.689627,7.637365-9.184628,15.39533-13.669133,23.156868-1.229815,2.12847-.493826,4.055889,1.840294,4.484622,5.145006.944972,10.335591,1.641721,16.036448,2.521343ZM287.35984,438.961143c-.106026-.251889-.21202-.503809-.318046-.755729-5.722345.538674-11.434622,1.255715-17.169086,1.579572-12.592142.711075-20.720544,7.565801-26.164556,18.392173-1.853058,3.68514-3.92923,7.257512-5.867338,10.900609-1.26047,2.369234-2.455652,4.773147-3.977675,7.741992,20.011054-10.443287,38.878292-21.183179,53.4967-37.858618ZM265.984061,159.650456c-.144278,1.532992-.323111,2.251291-.260994,2.948103,1.134805,12.727145,2.285364,25.452953,3.464637,38.176074.324385,3.49986,2.289684,5.237414,5.751959,4.836586,5.543574-.641841,11.077235-1.400056,16.589021-2.27368,3.443258-.545759,3.940572-1.72758,1.984098-4.568398-8.352977-12.128699-16.762198-24.21871-25.167535-36.311254-.545107-.784208-1.230017-1.4712-2.361186-2.807429ZM76.736761,471.497405c5.395023-3.881437,9.850311-13.774335,10.187949-21.412384.277199-6.271243-1.695355-11.998777-3.60211-17.785135-1.351735-4.102158-4.816092-5.120683-8.023713-2.243756-2.459428,2.205814-4.835047,4.506063-7.22361,6.789749-4.69153,4.485554-5.226818,7.754018-2.242342,13.584502,1.965982,3.840668,3.942514,7.675959,5.925276,11.507988,1.62275,3.136274,3.261721,6.264158,4.978549,9.559035ZM274.052677,384.806225c2.886902-2.686348,5.610415-5.211917,8.324357-7.747772,7.496225-7.004225,14.975235-14.027001,22.49545-21.005341,1.23533-1.146302,1.973129-2.36305,1.30127-4.024131-.708029-1.75045-2.262494-1.956629-3.83641-1.714466-2.67311.411238-5.374685.786119-7.973776,1.503968-10.745486,2.967882-19.140692,8.999728-23.68998,19.425147-.889504,2.038416-.88391,4.835482-.323577,7.036294.576119,2.262742,2.336451,4.224001,3.702666,6.526301ZM239.117318,381.872711c.056866.000466.113701.000901.170536.001336,0,2.284588-.161866,4.583563.039527,6.850251.273423,3.077264,2.156157,4.467904,5.203403,4.14184,4.45796-.477023,8.916914-.946494,13.370462-1.462111,3.616031-.418665,4.480986-2.078502,2.528615-5.124661-6.121837-9.551546-12.290161-19.073789-18.530454-28.548147-.546785-.830121-1.751786-1.226692-2.651079-1.824625-.345361,1.036827-1.012558,2.082387-.984716,3.109084.206986,7.621144.552005,15.238497.853706,22.857031ZM118.419965,386.482439c-.460569-6.754263-.878224-13.512005-1.431379-20.258655-.076521-.933257-.823346-1.811511-1.259864-2.715247-.865343.537431-2.020518.87434-2.55206,1.642684-6.689317,9.669287-13.312648,19.384719-19.864647,29.147571-.519377.773938-.85007,2.539864-.451526,2.875933.72526.611481,2.135446.83559,3.135186.626149,5.613926-1.175885,11.195054-2.510623,16.778528-3.828673,4.009122-.946463,5.756123-3.302429,5.645762-7.489762ZM53.065674,312.454282c1.694703-.574254,3.017321-.632954,3.698502-1.323955,2.350947-2.384865,4.732455-4.817863,6.600072-7.572979,1.218566-1.797652.064495-4.390839-2.126155-5.241624-7.633869-2.964837-15.324138-5.787943-23.040052-8.532587-.744449-.264816-2.186517.111495-2.624471.698086-.391824.524846-.146912,1.973968.337242,2.633242,4.01052,5.461134,8.022066,10.931621,12.312869,16.170356,1.22318,1.493403,3.363676,2.23549,4.841993,3.169461ZM287.871386,431.916521c.190641-.32973.381314-.659491.571986-.989221-3.20501-2.997434-6.306357-6.117238-9.651171-8.949573-2.258858-1.912783-5.064718-2.629047-8.07946-2.166287-5.85873.89923-11.09992,6.402687-12.231306,12.982187,9.817916-.293,19.603949-.585068,29.389951-.877105ZM37.381904,443.277994c-.092547.229981-.185094.459963-.277642.689975,8.69756,6.750254,17.395121,13.500508,26.092681,20.250762.190066-.135857.380133-.271652.570199-.407509-2.458759-5.04772-4.738375-10.196029-7.482195-15.083778-.856068-1.524975-2.8264-2.998459-4.529524-3.364018-4.722776-1.01377-9.573407-1.431938-14.373519-2.085432Z" style="fill: #000; stroke-width: 0px;"/>
  <path d="M293.983341,83.189067c-1.102519-.752652-2.48567-1.222279-3.062161-2.178313-1.820616-3.019248-3.83784-6.064955-4.873953-9.383045-2.383963-7.634568-6.511945-13.679154-13.544758-17.667387-1.531625-.868552-2.935502-2.016633-4.251315-3.199378-2.295495-2.063369-2.225204-4.269525.220007-6.171657,1.394804-1.085031,2.884944-2.177832,4.50945-2.815447,8.389613-3.292951,12.634341-9.788022,14.576396-18.217038.492-2.135283,1.224827-4.222121,1.953614-6.293709.662847-1.884179,1.864276-3.269459,4.0649-3.213758,2.146773.054341,3.475544,1.350205,4.057101,3.276738,1.195773,3.961438,2.286887,7.955769,3.352396,11.954884,1.149876,4.31595,3.849772,7.280833,7.823998,9.135608,2.604778,1.215629,5.309771,2.224195,7.877042,3.510759,4.889552,2.450323,5.121242,6.183745.643923,9.241851-2.239312,1.529465-4.490308,3.043967-6.775238,4.503903-4.514671,2.884688-7.303937,6.886702-8.398563,12.17082-.649734,3.136383-1.485728,6.258821-2.560248,9.27263-.578108,1.621461-1.718071,3.098254-2.835785,4.448933-.586156.708356-1.671273,1.003873-2.776806,1.623605ZM279.168077,47.930597c7.904076,3.424481,12.73207,8.755102,14.614773,16.652451,1.602878-7.825878,5.099584-14.058308,12.927434-17.708055-6.479534-2.501518-11.214118-5.964173-13.447122-12.78499-2.255284,7.234105-7.095211,11.183704-14.095085,13.840594Z" style="fill: #000; stroke-width: 0px;"/>
</svg>