<?xml version="1.0" encoding="UTF-8"?>
<svg id="Layer_1" data-name="Layer 1" xmlns="http://www.w3.org/2000/svg" viewBox="0 0 512 512">
  <defs>
    <style>
      .cls-1 {
        fill: #000;
        stroke-width: 0px;
      }
    </style>
  </defs>
  <path class="cls-1" d="M0,267.49c0-7.66,0-15.33,0-22.99.32-3.45.69-6.89.97-10.34,2.05-25.14,7.67-49.46,17.16-72.82,23.05-56.76,61.45-100.08,114.93-129.87C162.73,14.94,194.63,5.1,228.44,1.52c5.35-.57,10.71-1.02,16.07-1.52,7.66,0,15.33,0,22.99,0,1.02.15,2.04.39,3.07.45,17.52.91,34.78,3.57,51.68,8.24,61.21,16.9,109.87,51.6,145.75,103.92,24,35,38.01,73.86,42.5,116.1.58,5.44,1.01,10.89,1.51,16.33v22.47c-.15,1.02-.39,2.04-.45,3.06-1,18.92-4.02,37.52-9.36,55.7-18.12,61.69-54.21,110.14-108.02,145.2-33.72,21.97-70.82,34.81-110.87,39.04-5.26.56-10.54,1-15.8,1.5h-22.99c-1.02-.15-2.04-.4-3.06-.45-25.46-1.36-50.19-6.36-74.03-15.35-57.12-21.53-101.35-58.63-132.47-111.15-18.61-31.41-29.64-65.43-33.45-101.76C.94,278.03.5,272.76,0,267.49ZM486.43,256.03c.03-127.24-103.03-230.34-230.32-230.43-127.18-.09-230.41,103.04-230.51,230.27-.09,127.11,103,230.47,229.94,230.55,127.64.08,230.86-102.92,230.88-230.39Z"/>
  <path class="cls-1" d="M242.96,178.44c12.61,2.4,24.85,4.18,36.81,7.13,28.84,7.12,55.35,19.18,77.78,39.11,23.23,20.65,37.16,46.52,42.67,77.02,4.12,22.8,3.29,45.58-.33,68.33-.61,3.86-1.35,7.71-2.06,11.56-.16.84-.37,1.72-.75,2.48-1.56,3.12-3.73,3.24-5.61.29-.55-.87-.91-1.87-1.28-2.84-9.51-24.68-22.46-47.29-40.81-66.52-14.65-15.36-31.78-26.72-52.76-31.55-17.96-4.13-35.59-2.48-53.23,2.98,0,2.38,0,4.71,0,7.05,0,10.54.25,21.08-.14,31.6-.13,3.59-1.43,7.32-2.98,10.61-1.74,3.7-5.43,5.3-9.23,3.92-3.84-1.39-7.82-3.2-10.89-5.82-30.12-25.73-60.06-51.67-90.07-77.52-4.74-4.09-9.68-7.94-14.43-12.03-1.7-1.46-3.31-3.12-4.58-4.96-2.68-3.86-2.83-8.09-.34-12.03,1.55-2.46,3.55-4.77,5.75-6.67,22.1-19.02,44.3-37.93,66.46-56.9,13.16-11.27,26.28-22.59,39.45-33.84,1.24-1.06,2.67-1.98,4.14-2.68,8.92-4.27,16.26.35,16.33,10.31.09,12.89.07,25.77.1,38.66,0,.95,0,1.9,0,2.29Z"/>
</svg>