<svg xmlns="http://www.w3.org/2000/svg" width="142" height="31" viewBox="0 0 142 31">
  <g fill="none" fill-rule="evenodd" transform="translate(-1 -1)">
    <path fill="#ED1651" d="M142.491414 10L141.961854 10.91507C141.747419 11.494468 141.592454 11.8359094 141.384881 12.3036374 141.253361 12.5942134 141.101256 12.9344855 140.891967 13.4261845L136.442589 24.6721189C135.664906 26.67341 133.908175 28 131.991414 28 131.328096 28 130.549269 27.7965383 130.108391 27.6112011L129.707541 27.4381418 129.886523 27.0312184C130.50581 25.6829926 131.111455 25.0685184 132.404926 24.9615256 132.892121 24.9223534 133.425635 24.3365241 133.800753 23.4256239L133.989455 22.9602345 129.963228 13.4226766C129.748222 12.9122684 129.586395 12.5187923 129.424568 12.1206388 129.269032 11.7505491 129.116354 11.3845519 128.923077 10.9320251L128.978594 10 130.962258 10C132.10877 10 132.308859 10.6940685 132.75088 11.8359094 132.75088 11.8359094 134.964419 17.4410445 135.131392 17.8520605 135.29036 18.2636611 135.486496 19.2499824 135.486496 19.2499824L135.589425 19.2447205C135.589425 19.2447205 135.731809 18.3659766 135.904501 17.8520605 136.077764 17.3398983 138.051707 11.8493566 138.051707 11.8493566 138.463994 10.7273941 139.33665 10 140.506035 10L142.491414 10zM113.822392 12.9172102L113.822392 12.0503069C113.822392 11.2815965 113.32194 10.0364717 111.903222 10.0364717L110.99659 10 110.99659 24 114 24 114 18C114 17.2256786 113.979053 16.4050232 114.1516 15.8355042 114.601317 14.3356773 115.716025 13.3660922 116.985202 13.3660922 117.294691 13.3660922 117.551594 13.4222025 117.551594 13.4222025L117.99659 13.4222025 117.99659 10 117.655878 9.94725637C117.642184 9.94725637 117.307838 10.0364717 116.985202 10.0364717 115.695209 10.0364717 114.175154 11.4667603 113.822392 12.9172102zM122.825802 12.9699539L122.825802 12.1030505C122.825802 11.3343402 122.32535 10.0892153 120.906632 10.0892153L120 10.0527436 119.99659 24 123 24 123.00341 18.0527436C123.00341 17.2784222 122.982464 16.4577669 123.15501 15.8882478 123.604728 14.3884209 124.719435 13.4188358 125.988613 13.4188358 126.298101 13.4188358 126.555005 13.4749461 126.555005 13.4749461L127 13.4749461 126.948718 9.93322881 126.659288 10C126.645594 10 126.311248 10.0892153 125.988613 10.0892153 124.69862 10.0892153 123.178564 11.519504 122.825802 12.9699539zM53 17C53 20.865918 55.5643597 24 59.409581 24 63.2058794 24 66 20.8012744 66 17 66 13.1635179 63.2711098 10 59.409581 10 55.5643597 10 53 13.1635179 53 17zM56 17C56 14.789997 57.3480745 13.1857321 59.409581 13.1857321 61.4845834 13.1857321 63.0484266 14.8549221 63.0484266 17.0649251 63.0484266 19.3014781 61.4845834 20.9908692 59.409581 20.9908692 57.3480745 20.9908692 56 19.236553 56 17zM41 11.6589671L40.9123593 11.6589671C40.9123593 11.6589671 41 10.9405302 41 10.2068573L41 8.17391304C41 6.83665934 40.4411004 5.92965936 39.1689147 5.92965936L38 5.92965936 38 16.9858431C38.1529526 21.1646144 41.147717 24 45 24 48.5497272 24 51.0769231 20.8985701 51.0769231 16.9858431 51.0769231 13.0742881 48.4772879 10.1267044 45.0285987 10.1267044 43.2992301 10.1267044 41.6927522 11.0360484 41 11.6589671zM41.2996825 17.0309652C41.2996825 14.0921714 43.0965959 13.0461601 44.5675082 13.0461601 46.2522191 13.0461601 47.9910775 14.531086 47.9910775 17.0069391 47.9910775 19.4886523 46.2259827 20.9683042 44.5200594 20.9683042 42.5540051 20.9683042 41.2996825 18.9682836 41.2996825 17.0309652zM84 11.436167L83.9145847 11.436167C83.9145847 11.436167 84 10.7177301 84 9.98405716L84 8C84 6.6627463 83.3836699 6.01521547 82.1130474 6.01521547L81 5.97854646 81 16.9858431C81.1524077 21.1646144 83.6535197 24 87.5 24 91.052272 24 94 20.8985701 94 16.9858431 94 13.0742881 91.4473172 9.98405716 88 9.98405716 86.269363 9.98405716 84.6961627 10.8132482 84 11.436167zM87.4431189 20.9683042L87.4431189 20.9683042C85.4763337 20.9683042 84.2191097 18.9682836 84.2191097 17.0309652 84.2191097 14.0921714 86.0156226 13.0461601 87.4877805 13.0461601 89.1748724 13.0461601 90.9161166 14.531086 90.9161166 17.0069391 90.9161166 19.4886523 89.1514251 20.9683042 87.4431189 20.9683042M74.5815392 16.9388399L76.7017563 13.5923807C77.0885715 12.9816784 77.3893036 12.5463907 77.710718 12.0821625 77.9443723 11.750824 78.1791446 11.4135794 78.4429839 11.0095945L78.8840203 10 76.5720726 10C75.2713224 10 74.7928342 10.6286439 74.0991381 11.8441421 74.0991381 11.8441421 73.1645209 13.4718939 73.0342782 13.6992831 72.9129792 13.9249003 72.5915648 14.6808954 72.5820621 14.7009765L72.4993328 14.7009765C72.4993328 14.7009765 72.2081034 14.0010905 72.0337012 13.6992831 71.8637708 13.3980663 70.9593386 11.8388266 70.9593386 11.8388266 70.2259548 10.6286439 69.7295791 10 68.4785784 10L66.1727794 10 66.6456778 11.0143195C67.2052184 11.8441421 67.5249558 12.3319952 68.005121 13.0655466L70.4758195 16.9388399 68.3774027 20.5882878C67.9905875 21.1919026 67.6892964 21.6348684 67.3656461 22.0943716 67.1331097 22.4333881 66.8865989 22.9191634 66.6194057 23.3178326L66.1761333 24 68.4880811 24C69.7860363 24 70.2863248 23.5532058 70.9805799 22.3394794 70.9805799 22.3394794 71.9129612 20.7123182 72.0415269 20.4825666 72.1645029 20.2569493 72.4887122 19.4985918 72.4993328 19.4832357L72.5820621 19.4832357C72.5820621 19.4832357 72.8682607 20.1783967 73.040986 20.4825666 73.2153882 20.7814209 74.1198204 22.3442043 74.1198204 22.3442043 74.8548812 23.5532058 75.3277796 24 76.5787803 24L78.8840203 24 78.4144758 23.3178326C77.8599661 22.4933255 77.5514083 21.8492639 77.0723611 21.1068531L74.5815392 16.9388399zM105.720686 20.4040884L105.674246 20.4254412C104.990587 20.7318818 104.157028 21.1075746 103.171218 21.1075746 101.489991 21.1075746 99.4102084 20.2206847 99.2185721 18L109 18C109.058196 17.5752536 109 16.8301018 109 16.5 109 12.8608009 106.042109 10 102.403958 10 98.5106846 10 96 12.9891503 96 16.9636451 96 20.8798527 99.0075371 23.9272902 103.051886 23.9272902 106.333217 23.9272902 108.169045 21.9674551 108.247816 21.8889694L108.467081 21.6748649 108.335404 21.4018961C108.033842 20.8028652 107.597663 20.1074585 106.754699 20.1074585 106.387298 20.1074585 106.051641 20.2575048 105.720686 20.4040884zM105.5 15L99.7820513 15C99.9693988 13.6547775 101.019234 13.0063128 102.641026 13.0063128 104.262817 13.0063128 105.5 13.2467671 105.5 15zM14 26C15.3889783 24.6585922 17.605462 24.6585922 19 26 20.3425656 27.3892847 20.3425656 29.6064406 19 31 17.605462 32.3422628 15.3889783 32.3422628 14 31 12.6598578 29.6064406 12.6598578 27.3892847 14 26M20 20C18.6588286 21.3892147 18.6588286 23.6050831 20 25 21.3916204 26.3409906 23.6090922 26.3409906 25 25 26.341884 23.6050831 26.341884 21.3892147 25 20 23.6090922 18.6584392 21.3916204 18.6584392 20 20M26 14C24.6579247 15.3885824 24.6579247 17.6067146 26 19 27.3928164 20.3430381 29.6083238 20.3430381 31 19 32.340935 17.6067146 32.340935 15.3885824 31 14 29.6083238 12.6579596 27.3928164 12.6579596 26 14M8 20C6.65724403 21.3892147 6.65724403 23.607364 8 25 9.39302359 26.3409906 11.6085435 26.3409906 13 25 14.3414738 23.607364 14.3414738 21.3892147 13 20 11.6085435 18.6584392 9.39302359 18.6584392 8 20M2 14C.658057031 15.3931429.658057031 17.6067146 2 19 3.39075126 20.3430381 5.6076815 20.3430381 7 19 8.34208545 17.6067146 8.34208545 15.3931429 7 14 5.6076815 12.6579596 3.39075126 12.6579596 2 14M14 14C12.6599133 15.3885824 12.6599133 17.6067146 14 19 15.3885891 20.3430381 17.6047118 20.3430381 19 19 20.3413696 17.6067146 20.3413696 15.3885824 19 14 17.6047118 12.6579596 15.3885891 12.6579596 14 14M8 8C6.65724403 9.39370928 6.65724403 11.6077158 8 13 9.39302359 14.341022 11.6085435 14.341022 13 13 14.3414738 11.6077158 14.3414738 9.39370928 13 8 11.6085435 6.65812296 9.39302359 6.65812296 8 8M20 8C18.6588286 9.39370928 18.6588286 11.6077158 20 13 21.3916204 14.341022 23.6090922 14.341022 25 13 26.341884 11.6077158 26.341884 9.39370928 25 8 23.6090922 6.65812296 21.3916204 6.65812296 20 8"/>
    <path fill="#A6CE39" d="M14,2 C15.3885891,0.657987419 17.6047118,0.657987419 19,2 C20.3413696,3.39408807 20.3413696,5.60747949 19,7 C17.6047118,8.34187008 15.3885891,8.34187008 14,7 C12.6599133,5.60747949 12.6599133,3.39408807 14,2"/>
  </g>
</svg>