<?xml version="1.0" encoding="UTF-8"?>
<svg id="Layer_1" data-name="Layer 1" xmlns="http://www.w3.org/2000/svg" viewBox="0 0 337.03 497.89">
  <defs>
    <style>
      .cls-1 {
        fill: #000;
        stroke-width: 0px;
      }
    </style>
  </defs>
  <path class="cls-1" d="M190.06,398.88c85.24-24.87,146.96-188.22,146.96-252.76S273.08,25.01,188.28,17.41c-4.23-.35-7.62,2.61-7.98,6.66-.36,4.05,2.62,7.62,6.66,7.98,77.17,6.91,135.38,55.95,135.38,114.07s-59.19,214.05-134.65,238.17c-3.74-6.79-10.88-11.46-19.16-11.46s-15.42,4.67-19.16,11.46C73.89,360.18,14.7,203.51,14.7,146.12c0-52.51,48.54-98.53,116.19-111.3,3.98,7.65,11.9,12.95,21.1,12.95,13.16,0,23.88-10.72,23.88-23.88S165.15,0,151.99,0c-11.95,0-21.79,8.85-23.52,20.33C53.69,34.34,0,86.41,0,146.12c0,64.54,61.73,227.89,146.97,252.75,1.03,5.43,4.09,10.11,8.34,13.34l-21.17,21.17c-2.32,2.32-2.82,5.92-1.21,8.79l29.18,51.97c1.3,2.32,3.75,3.75,6.41,3.75s5.11-1.44,6.41-3.75l29.17-51.97c1.61-2.87,1.11-6.47-1.21-8.79l-21.16-21.17c4.24-3.22,7.31-7.9,8.34-13.33ZM151.99,14.7c5.06,0,9.19,4.12,9.19,9.19s-4.12,9.19-9.19,9.19-9.19-4.12-9.19-9.19,4.12-9.19,9.19-9.19ZM168.52,387.53c4.01,0,7.26,3.25,7.26,7.26s-3.25,7.25-7.26,7.25-7.26-3.25-7.26-7.25,3.25-7.26,7.26-7.26Z"/>
</svg>