<?xml version="1.0" encoding="UTF-8"?>
<svg id="Layer_1" data-name="Layer 1" xmlns="http://www.w3.org/2000/svg" viewBox="0 0 512 512">
  <defs>
    <style>
      .cls-1 {
        fill: #000;
        stroke-width: 0px;
      }
    </style>
  </defs>
  <path class="cls-1" d="M257.59,177.09c0-36.04-27.67-65.7-62.87-68.94v-58.93c0-8.84,7.19-16.03,16.03-16.03s16.03,7.19,16.03,16.03c0,3.53,2.86,6.39,6.39,6.39s6.39-2.86,6.39-6.39c0-15.89-12.92-28.82-28.81-28.82s-28.82,12.93-28.82,28.82v58.93c-35.2,3.24-62.87,32.9-62.87,68.94,0,30.98,20.45,57.27,48.56,66.1-4.16,4.82-6.77,11.01-6.77,17.86,0,7.36,2.95,14.02,7.67,18.96-16.9,7.59-28.72,24.55-28.72,44.25,0,24.48,38.77,83.48,43.19,90.13,1.19,1.78,3.18,2.85,5.32,2.85s4.14-1.07,5.32-2.85c4.42-6.65,43.19-65.64,43.19-90.13,0-19.7-11.82-36.66-28.72-44.25,4.73-4.94,7.68-11.6,7.68-18.96,0-6.85-2.61-13.04-6.77-17.86,28.11-8.82,48.56-35.11,48.56-66.1ZM157.48,177.09c0,3.53-2.86,6.39-6.39,6.39s-6.39-2.86-6.39-6.39c0-24.06,19.57-43.62,43.62-43.62,3.53,0,6.39,2.86,6.39,6.39s-2.86,6.39-6.39,6.39c-17,0-30.84,13.84-30.84,30.84ZM182.3,352.72c-.91.44-1.87.66-2.82.66-2.36,0-4.63-1.31-5.74-3.57-8.95-18.16-9.3-23.55-9.43-25.32,0-8.84,4.57-16.72,11.95-21,3.03-1.77,6.97-.74,8.73,2.32,1.77,3.05.74,6.96-2.32,8.73-3.45,2-5.59,5.65-5.59,9.52.04.35.67,4.97,8.12,20.09,1.56,3.17.26,7-2.91,8.56ZM203.01,261.05c0,8.1-6.59,14.69-14.69,14.69s-14.68-6.59-14.68-14.69,6.59-14.69,14.68-14.69,14.69,6.59,14.69,14.69Z"/>
  <path class="cls-1" d="M392.94,251.47c0-36.03-27.66-65.7-62.87-68.94v-58.94c0-8.84,7.19-16.03,16.03-16.03s16.03,7.19,16.03,16.03c0,3.53,2.86,6.39,6.39,6.39s6.39-2.86,6.39-6.39c0-15.89-12.92-28.82-28.81-28.82s-28.81,12.93-28.81,28.82v58.94c-35.2,3.24-62.87,32.9-62.87,68.94,0,30.98,20.45,57.27,48.56,66.1-4.16,4.81-6.77,11.01-6.77,17.85,0,7.36,2.95,14.02,7.67,18.95-16.9,7.59-28.72,24.55-28.72,44.25,0,24.49,38.77,83.48,43.2,90.13,1.18,1.78,3.18,2.85,5.32,2.85s4.14-1.07,5.32-2.85c4.43-6.65,43.19-65.64,43.19-90.13,0-19.7-11.82-36.66-28.72-44.25,4.73-4.94,7.67-11.6,7.67-18.96,0-6.85-2.61-13.04-6.76-17.85,28.11-8.82,48.56-35.11,48.56-66.1ZM292.84,251.47c0,3.53-2.86,6.39-6.39,6.39s-6.39-2.86-6.39-6.39c0-24.06,19.57-43.63,43.62-43.63,3.53,0,6.39,2.86,6.39,6.39s-2.86,6.39-6.39,6.39c-17,0-30.84,13.84-30.84,30.84ZM317.65,427.09c-.91.45-1.87.66-2.81.66-2.36,0-4.63-1.31-5.74-3.57-8.95-18.18-9.3-23.56-9.42-25.32,0-8.84,4.58-16.72,11.95-21,3.05-1.75,6.96-.73,8.73,2.32,1.77,3.05.73,6.97-2.32,8.74-3.45,2-5.58,5.65-5.59,9.52.03.34.67,4.96,8.12,20.1,1.56,3.17.26,7-2.91,8.56ZM338.36,335.42c0,8.1-6.58,14.69-14.68,14.69s-14.69-6.59-14.69-14.69,6.59-14.68,14.69-14.68,14.68,6.59,14.68,14.68Z"/>
</svg>