<?xml version="1.0" encoding="UTF-8"?>
<svg id="Layer_1" data-name="Layer 1" xmlns="http://www.w3.org/2000/svg" viewBox="0 0 512 512">
  <defs>
    <style>
      .cls-1 {
        fill: #000;
        stroke-width: 0px;
      }
    </style>
  </defs>
  <path class="cls-1" d="M98.85,298.19c17.53,0,31.74-14.21,31.74-31.74s-14.21-31.74-31.74-31.74-31.74,14.21-31.74,31.74,14.21,31.74,31.74,31.74Z"/>
  <path class="cls-1" d="M109.63,221.34c15.71,0,28.45-12.74,28.45-28.45s-12.74-28.45-28.45-28.45-28.45,12.74-28.45,28.45,12.74,28.45,28.45,28.45Z"/>
  <path class="cls-1" d="M139.36,156.17c13.32,0,24.12-10.8,24.12-24.11s-10.8-24.11-24.12-24.11-24.11,10.8-24.11,24.11,10.8,24.11,24.11,24.11Z"/>
  <path class="cls-1" d="M171.4,103.43c11.34,0,20.53-9.19,20.53-20.53s-9.19-20.53-20.53-20.53-20.53,9.19-20.53,20.53,9.19,20.53,20.53,20.53Z"/>
  <path class="cls-1" d="M212.16,65.97c10.04,0,18.19-8.14,18.19-18.19s-8.14-18.19-18.19-18.19-18.19,8.14-18.19,18.19,8.14,18.19,18.19,18.19Z"/>
  <path class="cls-1" d="M256,44.95c7.45,0,13.5-6.04,13.5-13.5s-6.04-13.5-13.5-13.5-13.5,6.04-13.5,13.5,6.04,13.5,13.5,13.5Z"/>
  <path class="cls-1" d="M256,401.59c-25.53,0-46.23,20.7-46.23,46.23s20.7,46.23,46.23,46.23,46.23-20.7,46.23-46.23-20.7-46.23-46.23-46.23ZM256,435c-7.07,0-12.81,5.75-12.81,12.81,0,4.36-3.54,7.9-7.9,7.9s-7.9-3.54-7.9-7.9c0-15.77,12.84-28.61,28.62-28.61,4.36,0,7.9,3.54,7.9,7.9s-3.54,7.9-7.9,7.9Z"/>
  <path class="cls-1" d="M160.37,378.5c-22.1,0-40.01,17.92-40.01,40.01s17.91,40.01,40.01,40.01,40.01-17.92,40.01-40.01-17.91-40.01-40.01-40.01ZM160.36,412.17c-3.5,0-6.34,2.85-6.34,6.35,0,4.36-3.54,7.9-7.9,7.9s-7.9-3.54-7.9-7.9c0-12.21,9.93-22.15,22.15-22.15,4.36,0,7.9,3.54,7.9,7.9s-3.54,7.9-7.9,7.9Z"/>
  <path class="cls-1" d="M141.37,347.8c0-20.09-16.29-36.38-36.38-36.38s-36.38,16.29-36.38,36.38,16.29,36.38,36.38,36.38,36.38-16.29,36.38-36.38ZM105,343.9c-2.15,0-3.89,1.75-3.89,3.9,0,4.36-3.54,7.9-7.9,7.9s-7.9-3.54-7.9-7.9c0-10.86,8.83-19.7,19.69-19.7,4.36,0,7.9,3.54,7.9,7.9s-3.54,7.9-7.9,7.9Z"/>
  <path class="cls-1" d="M381.41,266.45c0,17.53,14.21,31.74,31.74,31.74s31.74-14.21,31.74-31.74-14.21-31.74-31.74-31.74-31.74,14.21-31.74,31.74Z"/>
  <path class="cls-1" d="M373.92,192.89c0,15.71,12.74,28.45,28.45,28.45s28.45-12.74,28.45-28.45-12.74-28.45-28.45-28.45-28.45,12.74-28.45,28.45Z"/>
  <circle class="cls-1" cx="372.64" cy="132.05" r="24.11"/>
  <path class="cls-1" d="M340.6,103.43c11.34,0,20.53-9.19,20.53-20.53s-9.19-20.53-20.53-20.53-20.53,9.19-20.53,20.53,9.19,20.53,20.53,20.53Z"/>
  <path class="cls-1" d="M299.84,65.97c10.04,0,18.19-8.14,18.19-18.19s-8.14-18.19-18.19-18.19-18.19,8.14-18.19,18.19,8.14,18.19,18.19,18.19Z"/>
  <path class="cls-1" d="M351.63,378.5c-22.1,0-40.01,17.92-40.01,40.01s17.91,40.01,40.01,40.01,40.01-17.92,40.01-40.01-17.91-40.01-40.01-40.01ZM351.63,412.17c-3.5,0-6.34,2.85-6.34,6.35,0,4.36-3.54,7.9-7.9,7.9s-7.9-3.54-7.9-7.9c0-12.21,9.93-22.15,22.15-22.15,4.36,0,7.9,3.54,7.9,7.9s-3.54,7.9-7.9,7.9Z"/>
  <path class="cls-1" d="M407,311.42c-20.09,0-36.38,16.29-36.38,36.38s16.29,36.38,36.38,36.38,36.38-16.29,36.38-36.38-16.29-36.38-36.38-36.38ZM407,343.9c-2.15,0-3.9,1.75-3.9,3.9,0,4.36-3.54,7.9-7.9,7.9s-7.9-3.54-7.9-7.9c0-10.86,8.84-19.7,19.7-19.7,4.36,0,7.9,3.54,7.9,7.9s-3.54,7.9-7.9,7.9Z"/>
</svg>