<?xml version="1.0" encoding="UTF-8"?>
<svg id="Layer_1" data-name="Layer 1" xmlns="http://www.w3.org/2000/svg" viewBox="0 0 506.48 505.48">
  <defs>
    <style>
      .cls-1 {
        fill: #000;
        stroke-width: 0px;
      }
    </style>
  </defs>
  <path class="cls-1" d="M230.26,0C160.66,6.29,97.36,40.85,54.2,96.07l176.06,81.41V0Z"/>
  <path class="cls-1" d="M276.24.06v168.29l145.01-105.2C380.78,27.21,329.84,5.03,276.24.06Z"/>
  <path class="cls-1" d="M285.24,218.64l109.57,153.15h81.38c19.84-36.84,30.29-77.91,30.29-119.54,0-56.47-18.89-110.89-53.54-155.27l-167.7,121.67Z"/>
  <path class="cls-1" d="M28.99,135.04C9.97,171.23,0,211.36,0,252.24c0,37.74,8.58,75.04,24.97,109.12l184.32-142.94L28.99,135.04Z"/>
  <path class="cls-1" d="M253.25,505.48c13.74,0,27.56-1.23,41.9-3.77v-83.95H61.85c47.69,55.55,116.65,87.72,191.4,87.72Z"/>
  <path class="cls-1" d="M341.12,489.32c39.78-14.82,75.46-39.6,103.29-71.56h-103.29v71.56Z"/>
  <polygon class="cls-1" points="86.56 371.78 338.28 371.78 248.46 246.23 86.56 371.78"/>
</svg>