<?xml version="1.0" encoding="UTF-8"?>
<svg id="Layer_1" data-name="Layer 1" xmlns="http://www.w3.org/2000/svg" viewBox="0 0 491.29 509">
  <defs>
    <style>
      .cls-1 {
        fill: #000;
        stroke-width: 0px;
      }
    </style>
  </defs>
  <path class="cls-1" d="M353.22,87.5c4.14-13.56,2.07-28.27-6.09-40.11-1.61-2.3-1.03-5.63,1.38-7.24,1.84-1.26,2.3-3.68,1.49-5.75s-3.22-3.45-5.52-3.1c-1.72.11-5.17.46-9.08,1.72-1.38-3.68-3.1-7.24-5.4-10.57-14.6-21.26-43.68-26.67-64.94-12.07-21.26,14.6-26.67,43.68-12.07,64.94,2.3,3.33,4.94,6.21,7.93,8.85-2.64,3.33-4.25,6.55-5.17,8.39-1.03,1.95-.57,4.48,1.15,5.98s4.14,1.61,6.09.34c2.3-1.61,5.63-1.03,7.24,1.38,8.16,11.84,21.15,19.08,35.29,20.11-29.08,35.17-32.64,86.55-5.63,126.08,32.76,47.81,98.04,59.88,145.85,27.12,47.81-32.76,59.88-98.04,27.12-145.85-27.12-39.42-76.43-54.59-119.65-40.11h0v-.11ZM316.21,50.6s0,.23-.11.23h-.11l.23-.23h0ZM262.31,55.77c-2.18-8.39-.46-17.24,4.71-24.25,1.61-2.18,4.71-2.64,6.9-1.03s2.64,4.71,1.03,6.9c-3.33,4.48-4.48,10.46-3.1,15.98.57,2.07-.34,4.14-1.95,5.29-.46.34-1.03.57-1.61.69-2.64.69-5.29-.92-5.98-3.56h0ZM284.6,72.33h0c0,.11-.23.23-.34.23l.34-.23h0ZM278.28,94.62c-2.07-2.99-5.06-5.06-8.28-5.98,1.84-1.95,4.25-3.79,7.24-4.94,5.63-2.18,10.46-1.26,13.22-.69,1.95.34,3.91-.46,5.06-2.18s1.03-3.79,0-5.52c-2.18-3.22-1.49-13.1-.11-20.92,7.82,1.49,17.24,4.37,19.42,7.7,1.15,1.61,3.22,2.41,5.06,1.95,1.95-.46,3.45-2.07,3.79-4.02.46-2.64,1.38-7.59,5.4-11.95,2.18-2.41,4.83-4.02,7.24-5.06-.34,3.33.46,6.9,2.53,9.88,6.78,9.88,8.28,22.3,4.25,33.45l-35.29,24.14c-11.95-.23-22.87-6.09-29.65-15.98h0l.11.11ZM434.36,256.91c-38.62,26.55-91.49,16.67-117.92-21.95-26.55-38.62-16.67-91.49,21.95-117.92,38.62-26.55,91.49-16.67,117.92,21.95,26.55,38.62,16.67,91.49-21.95,117.92h0Z"/>
  <path class="cls-1" d="M171.24,220.27c3.45.23,6.33,0,8.29,0,3.22,0,5.87-2.3,6.56-5.41.69-3.11-.81-6.33-3.57-7.71-3.57-1.84-4.95-6.21-2.88-10.36,13.46-27.27,1.5-61.11-26.58-75.38l-4.6-2.3c-5.18-11.85-14.16-37.75-5.41-62.14,6.1-17.03,22.67-34.98,37.63-40.97,6.56-2.65,12.31-2.76,16.92-.46,8.75,4.37,14.16,17.61,8.06,29.69-2.19,4.26-6.1,6.1-12.2,8.86-6.9,3.11-15.54,6.9-21.06,16.8-4.26,7.6-5.64,16.57-4.14,26.93.58,3.8,4.03,6.44,7.83,5.87s6.33-4.03,5.87-7.83c-1.04-7.25-.23-13.35,2.53-18.18,3.34-5.98,8.52-8.29,14.62-11.05,6.79-2.99,14.39-6.44,18.87-15.31,9.9-19.56.69-40.74-14.16-48.22-8.17-4.14-17.95-4.14-28.31,0-18.53,7.37-38.21,28.54-45.57,49.14-7.71,21.41-4.03,43.27.69,58.69-26.24-8.52-55.24,2.3-67.78,26.35,0,0-.35.69-.46.81-1.84,3.57-6.21,4.95-9.78,3.22-2.88-1.38-5.98-.35-8.06,2.07s-1.96,6.33-.23,8.86c.92,1.27,2.3,3.45,4.37,5.87-16.92,8.17-30.73,21.52-39.36,38.55-21.52,42.47-4.49,94.48,37.98,116,42.47,21.52,94.48,4.49,116-37.98,8.63-17.03,11.28-36.02,7.83-54.55h0l.12.12ZM75.03,143.97c10.59-20.37,36.6-27.96,58-17.15h0l13.58,6.9c21.41,10.93,30.61,36.37,20.25,57.43-2.3,4.6-2.76,9.55-1.73,14.16-3.68-.92-7.48-2.65-11.05-5.64-6.44-5.41-8.52-12.08-9.78-15.88-.92-2.65-3.22-4.49-6.1-4.72-2.76-.23-5.41,1.27-6.67,3.8-2.53,4.95-15.19,10.7-25.66,14.27-3.34-10.59-6.21-24.17-3.68-29.12,1.27-2.53.81-5.52-1.04-7.6-.58-.69-1.27-1.27-2.07-1.61-1.61-.81-3.68-1.04-5.41-.46-3.57,1.15-10.24,3.45-18.41,1.38-4.49-1.04-8.17-3.22-11.16-5.64,4.49-1.96,8.29-5.41,10.7-10.24h0l.23.12ZM30.15,216.47c.81-2.3,1.84-4.6,2.99-6.9,1.73-3.45,5.87-4.72,9.32-2.99s4.72,5.87,2.99,9.32c-.92,1.73-1.61,3.57-2.3,5.29-1.27,3.57-5.29,5.41-8.86,4.14-.23,0-.58-.23-.81-.35-3.11-1.5-4.6-5.18-3.34-8.52h0ZM55.35,279.53c-2.19,2.3-5.52,2.88-8.17,1.5-.58-.23-1.15-.69-1.61-1.15-10.82-10.01-17.49-23.71-18.76-38.55-.35-3.8,2.53-7.14,6.33-7.48s7.14,2.53,7.48,6.33c.92,11.39,6.1,21.87,14.39,29.58,2.76,2.65,2.99,6.9.35,9.78h0Z"/>
  <path class="cls-1" d="M311.02,369.11c2.88-1.27,5.07-2.65,6.45-3.45l.81-.46c2.76-1.5,4.14-4.83,3.34-7.83-.81-3.11-3.68-5.18-6.79-5.07-4.03,0-7.37-3.11-7.48-7.83-1.04-30.39-27.51-54.57-59.06-53.87h-5.18c-10.13-7.83-30.28-26.48-34.07-52.15-2.65-17.84,3.45-41.56,13.81-53.99,4.6-5.41,9.55-8.29,14.74-8.4,9.78-.23,20.84,8.86,21.07,22.33,0,4.72-2.42,8.29-6.56,13.58-4.6,5.99-10.36,13.47-10.59,24.75-.12,8.75,2.88,17.38,9.09,25.67,2.3,3.11,6.56,3.8,9.67,1.5,3.11-2.3,3.68-6.56,1.5-9.67-4.26-5.87-6.45-11.63-6.33-17.27.12-6.79,3.68-11.4,7.71-16.58,4.49-5.87,9.67-12.55,9.44-22.33-.46-21.87-18.65-36.26-35.23-35.92-9.21.23-17.84,4.83-24.98,13.24-12.89,15.31-20.15,43.17-16.92,64.93,3.34,22.45,16.81,40.06,28.43,51.46-27.17,4.95-47.66,28.2-47.31,56.18,0,4.03-3.11,7.37-7.14,7.37-3.22,0-5.87,2.3-6.56,5.41-.69,3.11.81,6.33,3.68,7.71l.81.46c1.38.69,3.68,1.96,6.56,3.11-11.05,15.2-16.92,33.5-16.46,52.61,1.15,47.54,40.75,85.42,88.29,84.38,47.54-1.15,85.42-40.75,84.38-88.29-.46-19.11-7.14-37.07-18.88-51.8h0l-.23.23ZM190.15,347.35c-.35-22.91,18.99-42.02,43.05-42.48h0l15.31-.35c24.06-.58,44.21,17.61,45.01,41.1,0,5.07,2.07,9.78,5.18,13.35-3.68.92-7.94,1.27-12.43.23-8.29-1.73-13.35-6.68-16.12-9.32-1.96-1.96-4.95-2.53-7.6-1.38-2.53,1.15-4.26,3.68-4.14,6.45.12,5.53-8.29,16.58-15.89,24.75-7.94-7.71-16.92-18.42-17.04-23.94,0-2.76-1.84-5.18-4.49-6.22-.81-.35-1.73-.46-2.53-.46-1.84,0-3.68.81-4.95,2.19-2.53,2.76-7.37,7.83-15.54,10.02-4.49,1.15-8.75,1.04-12.43.35,2.99-3.8,4.72-8.75,4.6-14.16h0v-.12ZM184.85,432.43c-.35-2.42-.58-4.95-.69-7.48,0-3.8,2.99-7.02,6.79-7.02s7.02,2.99,7.02,6.79c0,1.96.23,3.91.46,5.76.58,3.8-2.07,7.25-5.87,7.83h-.92c-3.45,0-6.45-2.42-7.02-5.87h.23ZM236.89,476.17c-.81,3.11-3.57,5.07-6.56,5.18-.69,0-1.27,0-1.96-.23-14.27-3.8-26.59-12.66-34.65-25.1-2.07-3.22-1.15-7.48,2.07-9.55s7.48-1.15,9.55,2.07c6.22,9.55,15.66,16.46,26.59,19.22,3.68.92,5.87,4.72,4.95,8.4h0Z"/>
</svg>