<?xml version="1.0" encoding="UTF-8"?>
<svg id="Layer_1" data-name="Layer 1" xmlns="http://www.w3.org/2000/svg" viewBox="0 0 1012.67 1012.67">
  <defs>
    <style>
      .cls-1 {
        fill: #000;
      }

      .cls-1, .cls-2 {
        stroke-width: 0px;
      }

      .cls-2 {
        fill: rgb(0, 0, 0, 0);
      }
    </style>
  </defs>
  <path class="cls-2" d="M1012.67,1012.67c-337.51,0-675.03,0-1012.67,0V0h1012.67v1012.67ZM758.37,479.92c-.27-4.21-.06-10.89-1.23-17.31-9.6-52.27-38.92-88.91-89.47-105.6-50.51-16.67-95.9-4.96-134.7,31.51-6.94,6.52-13.38,13.58-20.09,20.36-5.2,5.26-9.75,4.99-15-.63-8.51-9.1-17.3-18.02-26.69-26.19-25.95-22.57-56.6-33.79-90.72-31.88-55.54,3.11-96.44,30.39-117.49,82.01-21.16,51.88-12.31,101.09,26.8,141.43,66.38,68.47,134.53,135.23,202.01,202.63,9.48,9.47,18.03,9.52,27.38.19,67.49-67.39,135.08-134.69,202.23-202.41,24.97-25.18,36.92-56.22,36.97-94.12Z"/>
  <path class="cls-1" d="M758.37,479.92c-.05,37.9-12,68.94-36.97,94.12-67.16,67.72-134.74,135.02-202.23,202.41-9.34,9.33-17.9,9.28-27.38-.19-67.48-67.4-135.63-134.16-202.01-202.63-39.11-40.35-47.96-89.55-26.8-141.43,21.05-51.62,61.94-78.9,117.49-82.01,34.12-1.91,64.78,9.31,90.72,31.88,9.39,8.17,18.18,17.09,26.69,26.19,5.26,5.62,9.8,5.88,15,.63,6.71-6.77,13.15-13.83,20.09-20.36,38.79-36.46,84.19-48.18,134.7-31.51,50.54,16.68,79.87,53.33,89.47,105.6,1.18,6.42.96,13.1,1.23,17.31ZM456.8,573.94c-2.69-5.74-3.54-9.98-6.07-12.56-21.86-22.3-43.85-44.47-66.2-66.28-6.71-6.55-16.81-5.8-23.21.34-6.37,6.11-7.76,16.66-1.41,23.2,21.97,22.65,44.15,45.12,67.16,66.7,3.67,3.44,12.83,4.07,17.93,2.09,4.99-1.94,8.03-8.88,11.8-13.48ZM482.63,634.95c9.27.19,17.02-7.11,17.42-16.4.44-10.34-8.94-20.6-19.24-21.03-10.05-.42-17.72,6.72-17.92,16.67-.21,10.11,9.73,20.56,19.74,20.77Z"/>
  <path class="cls-2" d="M456.8,573.94c-3.77,4.6-6.82,11.54-11.8,13.48-5.1,1.98-14.26,1.36-17.93-2.09-23.01-21.57-45.19-44.05-67.16-66.7-6.35-6.55-4.96-17.09,1.41-23.2,6.4-6.14,16.5-6.89,23.21-.34,22.34,21.81,44.34,43.98,66.2,66.28,2.53,2.58,3.38,6.83,6.07,12.56Z"/>
  <path class="cls-2" d="M482.63,634.95c-10.01-.2-19.95-10.66-19.74-20.77.2-9.95,7.87-17.09,17.92-16.67,10.3.43,19.68,10.69,19.24,21.03-.4,9.29-8.15,16.59-17.42,16.4Z"/>
</svg>