<?xml version="1.0" encoding="UTF-8"?>
<svg id="Layer_1" data-name="Layer 1" xmlns="http://www.w3.org/2000/svg" viewBox="0 0 1012.67 1012.67">
  <defs>
    <style>
      .cls-1 {
        fill: #000;
        stroke-width: 0px;
      }
    </style>
  </defs>
  <path class="cls-1" d="M925.88,370.56c-.08,63.38-20.07,115.28-61.82,157.39-112.31,113.24-225.31,225.78-338.17,338.47-15.62,15.6-29.93,15.52-45.78-.32-112.84-112.71-226.8-224.34-337.8-338.84-65.4-67.47-80.2-149.75-44.81-236.5,35.2-86.32,103.58-131.94,196.47-137.14,57.06-3.19,108.33,15.57,151.7,53.31,15.7,13.66,30.4,28.58,44.63,43.79,8.8,9.4,16.39,9.83,25.08,1.05,11.22-11.32,21.99-23.13,33.59-34.05,64.86-60.97,140.78-80.57,225.25-52.69,84.51,27.89,133.56,89.18,149.61,176.58,1.97,10.74,1.61,21.91,2.06,28.95v-.02ZM421.59,527.79c-4.5-9.6-5.92-16.69-10.15-21-36.55-37.29-73.33-74.36-110.7-110.83-11.22-10.95-28.11-9.7-38.81.57-10.65,10.22-12.98,27.86-2.36,38.8,36.74,37.88,73.83,75.45,112.31,111.54,6.14,5.75,21.45,6.81,29.98,3.49,8.34-3.24,13.43-14.85,19.73-22.54v-.02ZM464.78,629.81c15.5.32,28.46-11.89,29.13-27.42.74-17.29-14.95-34.45-32.17-35.17-16.81-.7-29.63,11.24-29.97,27.88-.35,16.91,16.27,34.38,33.01,34.73v-.02Z"/>
</svg>