<?xml version="1.0" encoding="UTF-8"?>
<svg id="Layer_1" data-name="Layer 1" xmlns="http://www.w3.org/2000/svg" version="1.1" viewBox="0 0 512 512">
  <defs>
    <style>
      .cls-1 {
        fill: #000;
        stroke-width: 0px;
      }
    </style>
  </defs>
  <path class="cls-1" d="M37,121.7c-12.2-7.7-24.1-15.9-35.8-24.7,6.8,9,14.3,17.6,22.2,25.7-9.9,3.5-17,12.9-17,24s11.5,25.6,25.6,25.6,22.4-8.6,25-20.1c5.1,3.8,10.2,7.5,15.5,11-7.6,5.6-12.6,14.5-12.6,24.7,0,16.9,13.8,30.7,30.7,30.7s29.5-12.8,30.5-28.9c5.2,2.2,10.4,4.4,15.7,6.4-5.2,6.1-8.4,14-8.4,22.6,0,19.5,15.8,35.3,35.3,35.3s35.3-15.8,35.3-35.3-.3-3.9-.6-5.8c5.6.9,11.2,1.8,16.8,2.6-14.5,19-14.2,45.6.8,64.3l-17.1,17.1,49.8,22.3v-72l-21.6,21.6c-10.5-14.3-9.4-34.5,3.6-47.4s3.3-2.9,5.1-4.1l20.8,1.2c7.2,0,14.3-.3,21.4-.7,1.5,1.1,3.1,2.2,4.5,3.6,6.9,6.9,10.7,16.1,10.7,25.9s-2.6,15.3-7.2,21.6l-21.6-21.6v72l49.8-22.3-17-17c7.5-9.3,11.8-20.6,11.8-32.7s-3.9-22.4-10.7-31.4c5.5-.7,11.1-1.5,16.5-2.5-.3,1.8-.5,3.5-.5,5.4,0,19.5,15.8,35.3,35.3,35.3s35.3-15.8,35.3-35.3-3.2-16.4-8.3-22.5c5.3-2,10.5-4.2,15.6-6.4,1,16,14.2,28.7,30.5,28.7s30.7-13.8,30.7-30.7-5-19.1-12.6-24.6c5.3-3.5,10.5-7.2,15.5-11,2.5,11.4,12.7,20,24.9,20s25.6-11.5,25.6-25.6-7.1-20.4-17-24c7.9-8.2,15.4-16.7,22.2-25.7-11.7,8.8-23.7,17-35.9,24.7-5.8,1.2-10.8,4.4-14.4,8.7-23.1,13.4-46.9,24.7-71.6,33.5-43.1,15.4-88.3,23-133.5,23.1l-33.9-1.3-33.7-4.5c-11-2.4-22.2-4.5-33.3-7.2-10.8-3.6-21.8-6.5-32.7-10.1-24.6-8.8-48.5-20.1-71.5-33.5-3.7-4.4-8.7-7.6-14.5-8.8h0ZM437.5,187.9c0,8.2-6.7,14.9-14.9,14.9s-14.9-6.7-14.9-14.9.5-4.2,1.3-6.1c5.3-2.7,10.6-5.6,15.7-8.6,7.2,1.1,12.8,7.2,12.8,14.7h0ZM90.6,202.9c-8.2,0-14.9-6.7-14.9-14.9s5.6-13.7,12.8-14.7c5.1,3,10.3,5.8,15.6,8.5.9,1.9,1.4,4,1.4,6.2,0,8.2-6.7,14.9-14.9,14.9Z"/>
  <polygon class="cls-1" points="248.7 407.5 248.7 336.6 195.4 312.7 248.7 407.5"/>
  <polygon class="cls-1" points="264.5 407.5 317.8 312.7 264.5 336.6 264.5 407.5"/>
</svg>