<?xml version="1.0" encoding="UTF-8"?>
<svg id="Layer_1" data-name="Layer 1" xmlns="http://www.w3.org/2000/svg" version="1.1" viewBox="0 0 512 512">
  <defs>
    <style>
      .cls-1 {
        fill: #000;
        stroke-width: 0px;
      }
    </style>
  </defs>
  <path class="cls-1" d="M369.9,124.6c3.6-11.8,1.8-24.6-5.3-34.9-1.4-2-.9-4.9,1.2-6.3,1.6-1.1,2-3.2,1.3-5-.7-1.8-2.8-3-4.8-2.7-1.5.1-4.5.4-7.9,1.5-1.2-3.2-2.7-6.3-4.7-9.2-12.7-18.5-38-23.2-56.5-10.5-18.5,12.7-23.2,38-10.5,56.5,2,2.9,4.3,5.4,6.9,7.7-2.3,2.9-3.7,5.7-4.5,7.3-.9,1.7-.5,3.9,1,5.2,1.5,1.3,3.6,1.4,5.3.3,2-1.4,4.9-.9,6.3,1.2,7.1,10.3,18.4,16.6,30.7,17.5-25.3,30.6-28.4,75.3-4.9,109.7,28.5,41.6,85.3,52.1,126.9,23.6,41.6-28.5,52.1-85.3,23.6-126.9-23.6-34.3-66.5-47.5-104.1-34.9h0ZM337.7,92.5c0,0,0,.2-.1.2,0,0,0,0-.1,0l.2-.2h0ZM290.8,97c-1.9-7.3-.4-15,4.1-21.1,1.4-1.9,4.1-2.3,6-.9,1.9,1.4,2.3,4.1.9,6-2.9,3.9-3.9,9.1-2.7,13.9.5,1.8-.3,3.6-1.7,4.6-.4.3-.9.5-1.4.6-2.3.6-4.6-.8-5.2-3.1h0ZM310.2,111.4h0c0,.1-.2.2-.3.2l.3-.2h0ZM304.7,130.8c-1.8-2.6-4.4-4.4-7.2-5.2,1.6-1.7,3.7-3.3,6.3-4.3,4.9-1.9,9.1-1.1,11.5-.6,1.7.3,3.4-.4,4.4-1.9s.9-3.3,0-4.8c-1.9-2.8-1.3-11.4-.1-18.2,6.8,1.3,15,3.8,16.9,6.7,1,1.4,2.8,2.1,4.4,1.7,1.7-.4,3-1.8,3.3-3.5.4-2.3,1.2-6.6,4.7-10.4,1.9-2.1,4.2-3.5,6.3-4.4-.3,2.9.4,6,2.2,8.6,5.9,8.6,7.2,19.4,3.7,29.1l-30.7,21c-10.4-.2-19.9-5.3-25.8-13.9h0ZM440.5,272c-33.6,23.1-79.6,14.5-102.6-19.1-23.1-33.6-14.5-79.6,19.1-102.6,33.6-23.1,79.6-14.5,102.6,19.1,23.1,33.6,14.5,79.6-19.1,102.6h0Z"/>
  <path class="cls-1" d="M167.4,249.7c3,.2,5.5,0,7.2,0,2.8,0,5.1-2,5.7-4.7.6-2.7-.7-5.5-3.1-6.7-3.1-1.6-4.3-5.4-2.5-9,11.7-23.7,1.3-53.1-23.1-65.5l-4-2c-4.5-10.3-12.3-32.8-4.7-54,5.3-14.8,19.7-30.4,32.7-35.6,5.7-2.3,10.7-2.4,14.7-.4,7.6,3.8,12.3,15.3,7,25.8-1.9,3.7-5.3,5.3-10.6,7.7-6,2.7-13.5,6-18.3,14.6-3.7,6.6-4.9,14.4-3.6,23.4.5,3.3,3.5,5.6,6.8,5.1,3.3-.5,5.5-3.5,5.1-6.8-.9-6.3-.2-11.6,2.2-15.8,2.9-5.2,7.4-7.2,12.7-9.6,5.9-2.6,12.5-5.6,16.4-13.3,8.6-17,.6-35.4-12.3-41.9-7.1-3.6-15.6-3.6-24.6,0-16.1,6.4-33.2,24.8-39.6,42.7-6.7,18.6-3.5,37.6.6,51-22.8-7.4-48,2-58.9,22.9,0,0-.3.6-.4.7-1.6,3.1-5.4,4.3-8.5,2.8-2.5-1.2-5.2-.3-7,1.8s-1.7,5.5-.2,7.7c.8,1.1,2,3,3.8,5.1-14.7,7.1-26.7,18.7-34.2,33.5-18.7,36.9-3.9,82.1,33,100.8,36.9,18.7,82.1,3.9,100.8-33,7.5-14.8,9.8-31.3,6.8-47.4h0ZM83.8,183.4c9.2-17.7,31.8-24.3,50.4-14.9h0l11.8,6c18.6,9.5,26.6,31.6,17.6,49.9-2,4-2.4,8.3-1.5,12.3-3.2-.8-6.5-2.3-9.6-4.9-5.6-4.7-7.4-10.5-8.5-13.8-.8-2.3-2.8-3.9-5.3-4.1-2.4-.2-4.7,1.1-5.8,3.3-2.2,4.3-13.2,9.3-22.3,12.4-2.9-9.2-5.4-21-3.2-25.3,1.1-2.2.7-4.8-.9-6.6-.5-.6-1.1-1.1-1.8-1.4-1.4-.7-3.2-.9-4.7-.4-3.1,1-8.9,3-16,1.2-3.9-.9-7.1-2.8-9.7-4.9,3.9-1.7,7.2-4.7,9.3-8.9h0ZM44.8,246.4c.7-2,1.6-4,2.6-6,1.5-3,5.1-4.1,8.1-2.6s4.1,5.1,2.6,8.1c-.8,1.5-1.4,3.1-2,4.6-1.1,3.1-4.6,4.7-7.7,3.6-.2,0-.5-.2-.7-.3-2.7-1.3-4-4.5-2.9-7.4h0ZM66.7,301.2c-1.9,2-4.8,2.5-7.1,1.3-.5-.2-1-.6-1.4-1-9.4-8.7-15.2-20.6-16.3-33.5-.3-3.3,2.2-6.2,5.5-6.5,3.3-.3,6.2,2.2,6.5,5.5.8,9.9,5.3,19,12.5,25.7,2.4,2.3,2.6,6,.3,8.5h0Z"/>
  <path class="cls-1" d="M310.7,343.7c2.5-1.1,4.4-2.3,5.6-3l.7-.4c2.4-1.3,3.6-4.2,2.9-6.8-.7-2.7-3.2-4.5-5.9-4.4-3.5,0-6.4-2.7-6.5-6.8-.9-26.4-23.9-47.4-51.3-46.8h-4.5c-8.8-6.8-26.3-23-29.6-45.3-2.3-15.5,3-36.1,12-46.9,4-4.7,8.3-7.2,12.8-7.3,8.5-.2,18.1,7.7,18.3,19.4,0,4.1-2.1,7.2-5.7,11.8-4,5.2-9,11.7-9.2,21.5-.1,7.6,2.5,15.1,7.9,22.3,2,2.7,5.7,3.3,8.4,1.3,2.7-2,3.2-5.7,1.3-8.4-3.7-5.1-5.6-10.1-5.5-15,.1-5.9,3.2-9.9,6.7-14.4,3.9-5.1,8.4-10.9,8.2-19.4-.4-19-16.2-31.5-30.6-31.2-8,.2-15.5,4.2-21.7,11.5-11.2,13.3-17.5,37.5-14.7,56.4,2.9,19.5,14.6,34.8,24.7,44.7-23.6,4.3-41.4,24.5-41.1,48.8,0,3.5-2.7,6.4-6.2,6.4-2.8,0-5.1,2-5.7,4.7-.6,2.7.7,5.5,3.2,6.7l.7.4c1.2.6,3.2,1.7,5.7,2.7-9.6,13.2-14.7,29.1-14.3,45.7,1,41.3,35.4,74.2,76.7,73.3,41.3-1,74.2-35.4,73.3-76.7-.4-16.6-6.2-32.2-16.4-45h0ZM205.7,324.8c-.3-19.9,16.5-36.5,37.4-36.9h0l13.3-.3c20.9-.5,38.4,15.3,39.1,35.7,0,4.4,1.8,8.5,4.5,11.6-3.2.8-6.9,1.1-10.8.2-7.2-1.5-11.6-5.8-14-8.1-1.7-1.7-4.3-2.2-6.6-1.2-2.2,1-3.7,3.2-3.6,5.6.1,4.8-7.2,14.4-13.8,21.5-6.9-6.7-14.7-16-14.8-20.8,0-2.4-1.6-4.5-3.9-5.4-.7-.3-1.5-.4-2.2-.4-1.6,0-3.2.7-4.3,1.9-2.2,2.4-6.4,6.8-13.5,8.7-3.9,1-7.6.9-10.8.3,2.6-3.3,4.1-7.6,4-12.3h0ZM201.1,398.7c-.3-2.1-.5-4.3-.6-6.5,0-3.3,2.6-6.1,5.9-6.1s6.1,2.6,6.1,5.9c0,1.7.2,3.4.4,5,.5,3.3-1.8,6.3-5.1,6.8-.3,0-.5,0-.8,0-3,0-5.6-2.1-6.1-5.1h0ZM246.3,436.7c-.7,2.7-3.1,4.4-5.7,4.5-.6,0-1.1,0-1.7-.2-12.4-3.3-23.1-11-30.1-21.8-1.8-2.8-1-6.5,1.8-8.3,2.8-1.8,6.5-1,8.3,1.8,5.4,8.3,13.6,14.3,23.1,16.7,3.2.8,5.1,4.1,4.3,7.3h0Z"/>
  <path class="cls-1" d="M368.9,124.6c3.6-11.8,1.8-24.6-5.3-34.9-1.4-2-.9-4.9,1.2-6.3,1.6-1.1,2-3.2,1.3-5-.7-1.8-2.8-3-4.8-2.7-1.5.1-4.5.4-7.9,1.5-1.2-3.2-2.7-6.3-4.7-9.2-12.7-18.5-38-23.2-56.5-10.5-18.5,12.7-23.2,38-10.5,56.5,2,2.9,4.3,5.4,6.9,7.7-2.3,2.9-3.7,5.7-4.5,7.3-.9,1.7-.5,3.9,1,5.2,1.5,1.3,3.6,1.4,5.3.3,2-1.4,4.9-.9,6.3,1.2,7.1,10.3,18.4,16.6,30.7,17.5-25.3,30.6-28.4,75.3-4.9,109.7,28.5,41.6,85.3,52.1,126.9,23.6,41.6-28.5,52.1-85.3,23.6-126.9-23.6-34.3-66.5-47.5-104.1-34.9h0ZM336.7,92.5c0,0,0,.2-.1.2,0,0,0,0-.1,0l.2-.2h0ZM289.8,97c-1.9-7.3-.4-15,4.1-21.1,1.4-1.9,4.1-2.3,6-.9,1.9,1.4,2.3,4.1.9,6-2.9,3.9-3.9,9.1-2.7,13.9.5,1.8-.3,3.6-1.7,4.6-.4.3-.9.5-1.4.6-2.3.6-4.6-.8-5.2-3.1h0ZM309.2,111.4h0c0,.1-.2.2-.3.2l.3-.2h0ZM303.7,130.8c-1.8-2.6-4.4-4.4-7.2-5.2,1.6-1.7,3.7-3.3,6.3-4.3,4.9-1.9,9.1-1.1,11.5-.6,1.7.3,3.4-.4,4.4-1.9s.9-3.3,0-4.8c-1.9-2.8-1.3-11.4-.1-18.2,6.8,1.3,15,3.8,16.9,6.7,1,1.4,2.8,2.1,4.4,1.7,1.7-.4,3-1.8,3.3-3.5.4-2.3,1.2-6.6,4.7-10.4,1.9-2.1,4.2-3.5,6.3-4.4-.3,2.9.4,6,2.2,8.6,5.9,8.6,7.2,19.4,3.7,29.1l-30.7,21c-10.4-.2-19.9-5.3-25.8-13.9h0ZM439.5,272c-33.6,23.1-79.6,14.5-102.6-19.1-23.1-33.6-14.5-79.6,19.1-102.6,33.6-23.1,79.6-14.5,102.6,19.1,23.1,33.6,14.5,79.6-19.1,102.6h0Z"/>
  <path class="cls-1" d="M166.4,249.7c3,.2,5.5,0,7.2,0,2.8,0,5.1-2,5.7-4.7.6-2.7-.7-5.5-3.1-6.7-3.1-1.6-4.3-5.4-2.5-9,11.7-23.7,1.3-53.1-23.1-65.5l-4-2c-4.5-10.3-12.3-32.8-4.7-54,5.3-14.8,19.7-30.4,32.7-35.6,5.7-2.3,10.7-2.4,14.7-.4,7.6,3.8,12.3,15.3,7,25.8-1.9,3.7-5.3,5.3-10.6,7.7-6,2.7-13.5,6-18.3,14.6-3.7,6.6-4.9,14.4-3.6,23.4.5,3.3,3.5,5.6,6.8,5.1,3.3-.5,5.5-3.5,5.1-6.8-.9-6.3-.2-11.6,2.2-15.8,2.9-5.2,7.4-7.2,12.7-9.6,5.9-2.6,12.5-5.6,16.4-13.3,8.6-17,.6-35.4-12.3-41.9-7.1-3.6-15.6-3.6-24.6,0-16.1,6.4-33.2,24.8-39.6,42.7-6.7,18.6-3.5,37.6.6,51-22.8-7.4-48,2-58.9,22.9,0,0-.3.6-.4.7-1.6,3.1-5.4,4.3-8.5,2.8-2.5-1.2-5.2-.3-7,1.8s-1.7,5.5-.2,7.7c.8,1.1,2,3,3.8,5.1-14.7,7.1-26.7,18.7-34.2,33.5-18.7,36.9-3.9,82.1,33,100.8,36.9,18.7,82.1,3.9,100.8-33,7.5-14.8,9.8-31.3,6.8-47.4h0ZM82.8,183.4c9.2-17.7,31.8-24.3,50.4-14.9h0l11.8,6c18.6,9.5,26.6,31.6,17.6,49.9-2,4-2.4,8.3-1.5,12.3-3.2-.8-6.5-2.3-9.6-4.9-5.6-4.7-7.4-10.5-8.5-13.8-.8-2.3-2.8-3.9-5.3-4.1-2.4-.2-4.7,1.1-5.8,3.3-2.2,4.3-13.2,9.3-22.3,12.4-2.9-9.2-5.4-21-3.2-25.3,1.1-2.2.7-4.8-.9-6.6-.5-.6-1.1-1.1-1.8-1.4-1.4-.7-3.2-.9-4.7-.4-3.1,1-8.9,3-16,1.2-3.9-.9-7.1-2.8-9.7-4.9,3.9-1.7,7.2-4.7,9.3-8.9h0ZM43.8,246.4c.7-2,1.6-4,2.6-6,1.5-3,5.1-4.1,8.1-2.6s4.1,5.1,2.6,8.1c-.8,1.5-1.4,3.1-2,4.6-1.1,3.1-4.6,4.7-7.7,3.6-.2,0-.5-.2-.7-.3-2.7-1.3-4-4.5-2.9-7.4h0ZM65.7,301.2c-1.9,2-4.8,2.5-7.1,1.3-.5-.2-1-.6-1.4-1-9.4-8.7-15.2-20.6-16.3-33.5-.3-3.3,2.2-6.2,5.5-6.5,3.3-.3,6.2,2.2,6.5,5.5.8,9.9,5.3,19,12.5,25.7,2.4,2.3,2.6,6,.3,8.5h0Z"/>
  <path class="cls-1" d="M309.7,343.7c2.5-1.1,4.4-2.3,5.6-3l.7-.4c2.4-1.3,3.6-4.2,2.9-6.8-.7-2.7-3.2-4.5-5.9-4.4-3.5,0-6.4-2.7-6.5-6.8-.9-26.4-23.9-47.4-51.3-46.8h-4.5c-8.8-6.8-26.3-23-29.6-45.3-2.3-15.5,3-36.1,12-46.9,4-4.7,8.3-7.2,12.8-7.3,8.5-.2,18.1,7.7,18.3,19.4,0,4.1-2.1,7.2-5.7,11.8-4,5.2-9,11.7-9.2,21.5-.1,7.6,2.5,15.1,7.9,22.3,2,2.7,5.7,3.3,8.4,1.3,2.7-2,3.2-5.7,1.3-8.4-3.7-5.1-5.6-10.1-5.5-15,.1-5.9,3.2-9.9,6.7-14.4,3.9-5.1,8.4-10.9,8.2-19.4-.4-19-16.2-31.5-30.6-31.2-8,.2-15.5,4.2-21.7,11.5-11.2,13.3-17.5,37.5-14.7,56.4,2.9,19.5,14.6,34.8,24.7,44.7-23.6,4.3-41.4,24.5-41.1,48.8,0,3.5-2.7,6.4-6.2,6.4-2.8,0-5.1,2-5.7,4.7-.6,2.7.7,5.5,3.2,6.7l.7.4c1.2.6,3.2,1.7,5.7,2.7-9.6,13.2-14.7,29.1-14.3,45.7,1,41.3,35.4,74.2,76.7,73.3,41.3-1,74.2-35.4,73.3-76.7-.4-16.6-6.2-32.2-16.4-45h0ZM204.7,324.8c-.3-19.9,16.5-36.5,37.4-36.9h0l13.3-.3c20.9-.5,38.4,15.3,39.1,35.7,0,4.4,1.8,8.5,4.5,11.6-3.2.8-6.9,1.1-10.8.2-7.2-1.5-11.6-5.8-14-8.1-1.7-1.7-4.3-2.2-6.6-1.2-2.2,1-3.7,3.2-3.6,5.6.1,4.8-7.2,14.4-13.8,21.5-6.9-6.7-14.7-16-14.8-20.8,0-2.4-1.6-4.5-3.9-5.4-.7-.3-1.5-.4-2.2-.4-1.6,0-3.2.7-4.3,1.9-2.2,2.4-6.4,6.8-13.5,8.7-3.9,1-7.6.9-10.8.3,2.6-3.3,4.1-7.6,4-12.3h0ZM200.1,398.7c-.3-2.1-.5-4.3-.6-6.5,0-3.3,2.6-6.1,5.9-6.1s6.1,2.6,6.1,5.9c0,1.7.2,3.4.4,5,.5,3.3-1.8,6.3-5.1,6.8-.3,0-.5,0-.8,0-3,0-5.6-2.1-6.1-5.1h0ZM245.3,436.7c-.7,2.7-3.1,4.4-5.7,4.5-.6,0-1.1,0-1.7-.2-12.4-3.3-23.1-11-30.1-21.8-1.8-2.8-1-6.5,1.8-8.3,2.8-1.8,6.5-1,8.3,1.8,5.4,8.3,13.6,14.3,23.1,16.7,3.2.8,5.1,4.1,4.3,7.3h0Z"/>
</svg>