<?xml version="1.0" encoding="UTF-8"?>
<svg id="Layer_1" data-name="Layer 1" xmlns="http://www.w3.org/2000/svg" viewBox="0 0 299.11 497.19">
  <defs>
    <style>
      .cls-1 {
        fill: #000;
        stroke-width: 0px;
      }
    </style>
  </defs>
  <path class="cls-1" d="M196.08,425.21c.03-.27.07-.52.07-.79,0-.88-.1-1.74-.41-2.57,0,0,0,0,0-.01,0-.03-.03-.04-.04-.07-.24-.64-.56-1.25-.99-1.82l-39.29-51.8c-.09-.11-.23-.15-.32-.26-1.35-1.59-3.29-2.65-5.54-2.65s-4.19,1.07-5.54,2.66c-.09.11-.24.14-.32.25l-39.29,51.8c-.42.56-.73,1.17-.98,1.79-.01.04-.04.06-.06.09,0,0,0,.01,0,.02-.3.83-.41,1.7-.4,2.57,0,.27.04.52.07.78.07.6.21,1.18.43,1.76.1.26.19.51.31.76.07.14.1.3.18.45l39.29,65.44c1.33,2.22,3.72,3.57,6.3,3.57s4.98-1.35,6.3-3.57l39.29-65.44c.08-.14.11-.29.18-.43.14-.26.23-.53.33-.8.21-.57.35-1.13.42-1.72ZM142.2,428.42l-20.1-7.47,20.1-26.5v33.97ZM156.91,394.44l20.1,26.5-20.1,7.47v-33.97ZM149.56,475.55l-22.2-36.97,19.64,7.29c.06.02.12.01.18.03.76.26,1.56.43,2.38.43s1.62-.16,2.38-.43c.06-.02.12-.01.18-.03l19.64-7.3-22.2,36.97Z"/>
  <path class="cls-1" d="M129.05,364.06c0-12.97-10.52-23.49-23.49-23.49s-23.49,10.52-23.49,23.49,10.52,23.49,23.49,23.49,23.49-10.52,23.49-23.49Z"/>
  <path class="cls-1" d="M171.1,17.82c-1.95-10.13-10.86-17.82-21.55-17.82s-19.6,7.69-21.55,17.82C42.79,41.54,0,174.35,0,244.18c0,39.74,14.06,71.99,41.79,95.86.42.36.91.56,1.38.81-.22.99-.36,2.01-.36,3.07,0,7.67,6.21,13.88,13.88,13.88s13.88-6.21,13.88-13.88-6.21-13.88-13.88-13.88c-1.37,0-2.67.26-3.93.63-.39-.63-.79-1.26-1.38-1.77-24.34-20.94-36.68-49.45-36.68-84.71,0-63.48,39.7-189.03,115.64-211.77,3.73,6.83,10.89,11.53,19.21,11.53s15.48-4.7,19.21-11.53c75.95,22.74,115.64,148.29,115.64,211.77,0,35.26-12.34,63.77-36.68,84.71-.59.51-.99,1.14-1.37,1.77-1.25-.37-2.55-.63-3.93-.63-7.67,0-13.88,6.21-13.88,13.88s6.21,13.88,13.88,13.88,13.88-6.21,13.88-13.88c0-1.06-.14-2.08-.37-3.07.47-.25.96-.45,1.38-.81,27.73-23.86,41.79-56.11,41.79-95.86,0-69.82-42.79-202.63-128.01-226.36ZM149.56,29.23c-4.01,0-7.27-3.25-7.27-7.27s3.26-7.27,7.27-7.27,7.27,3.25,7.27,7.27-3.26,7.27-7.27,7.27Z"/>
  <path class="cls-1" d="M193.55,340.56c-12.97,0-23.49,10.52-23.49,23.49s10.52,23.49,23.49,23.49,23.49-10.52,23.49-23.49-10.52-23.49-23.49-23.49Z"/>
</svg>