<?xml version="1.0" encoding="UTF-8"?>
<svg id="Layer_1" data-name="Layer 1" xmlns="http://www.w3.org/2000/svg" viewBox="0 0 491.35 491.22">
  <defs>
    <style>
      .cls-1 {
        fill: #000;
        stroke-width: 0px;
      }
    </style>
  </defs>
  <path class="cls-1" d="M469.65,106.46l-84.71-84.72c-24.91-24.91-67.42-28.53-119.66-10.25-50.33,17.61-104.38,53.65-152.19,101.46C11.3,214.75-28.76,334.16,21.88,384.8l84.71,84.72c14.67,14.67,35.32,21.7,59.81,21.7,51.03,0,118.7-30.6,183.56-86.5,13.09-3.41,25.11-10.16,34.93-19.98,10-10,16.58-22.1,19.92-34.88,82.76-95.99,110.08-198.18,64.84-243.4ZM124.29,124.15C216.62,31.83,330.86-9.94,373.74,32.94c39.19,39.19,9.91,135.52-68.01,224.58-11.03,3.74-21.17,9.92-29.65,18.4-8.6,8.6-14.65,18.78-18.32,29.58-89.09,77.98-185.47,107.29-224.67,68.08-42.88-42.88-1.11-157.11,91.21-249.44ZM306.89,306.75c-8.12,8.12-11.47,19.67-8.95,30.9.95,4.27-1.74,8.51-6,9.47-.59.12-1.17.19-1.74.19-3.62,0-6.9-2.51-7.73-6.19-3.69-16.56,1.25-33.6,13.22-45.57,3.09-3.09,8.11-3.09,11.2,0,3.09,3.09,3.09,8.11,0,11.2ZM306.97,365.04c-1.55,1.6-3.62,2.4-5.68,2.4s-3.97-.74-5.52-2.24l-1.25-1.28c-2.99-3.19-2.84-8.2.35-11.2,3.18-2.98,8.21-2.85,11.2.35l.73.76c3.14,3.04,3.22,8.06.16,11.2ZM117.79,458.31l-52.92-52.92c5.43.83,11.1,1.26,17,1.26,47.94,0,110.47-27.15,171.73-76.93-.16,19.91,7.31,39.87,22.47,55.02,12.61,12.61,28.84,20.29,46.34,22.1-83,65.14-168.56,87.52-204.62,51.47ZM384.89,275.93c-14.53-14.53-33.85-22.54-54.4-22.54-.2,0-.4.03-.6.03,55.93-68.85,83.18-139.23,75.56-188.77l53,53.01c36.06,36.07,13.67,121.66-51.5,204.67-1.76-16.96-9.09-33.44-22.06-46.41Z"/>
  <path class="cls-1" d="M99.38,374.47c.9,0,1.78-.17,2.61-.46,11.33-1.99,23.58-5.37,36.75-10.53,44.12-17.28,91.44-49.81,133.24-91.62,56.57-56.56,94.18-122.55,102.46-171.26.04-.2.09-.38.11-.58,4.03-24.34.81-44.38-11.35-56.54-17.21-17.2-51.88-17.36-95.14-.42-44.12,17.28-91.44,49.82-133.25,91.63C49.69,219.81,7.07,326.54,43.61,363.06c8.68,8.68,21.79,13.02,38.2,13.02,5.45,0,11.39-.66,17.53-1.62.02,0,.03,0,.05,0ZM348.86,132.83c-16.5,42.14-47.78,87.52-88.08,127.83-40.29,40.29-85.69,71.58-127.82,88.07-7.57,2.96-14.78,5.22-21.7,7.05,16.55-47.81,51.43-100.58,97.74-146.9,46.31-46.32,99.07-81.19,146.9-97.75-1.82,6.92-4.08,14.14-7.05,21.7ZM54.81,351.86c-23.4-23.39.5-115.26,91.21-205.98,40.3-40.3,85.7-71.58,127.83-88.08,19.51-7.63,37.22-11.48,51.3-11.48,11.95,0,21.27,2.77,26.86,8.36,7.3,7.29,9.69,21.06,7.48,38.61-52.36,15.98-110.94,53.64-161.67,104.38-50.74,50.74-88.41,109.32-104.38,161.67-17.55,2.21-31.31-.18-38.62-7.48Z"/>
</svg>