<?xml version="1.0" encoding="UTF-8"?>
<svg id="Layer_1" data-name="Layer 1" xmlns="http://www.w3.org/2000/svg" width="496.984769" height="205.839807" viewBox="0 0 496.984769 205.839807">
  <path d="M0,205.839807c7.637072-4.573196,14.689798-8.567792,21.510703-12.92532,18.087719-11.555151,36.196468-23.085751,54.040372-35.009952,6.720862-4.491223,12.4723-10.263421,15.858169-17.927249.263058-.595416.804367-1.292034,1.374776-1.493831,8.333586-2.94831,14.758726-8.71114,20.915772-14.647417,12.525105-12.075928,24.359558-24.841292,33.894626-39.458573,5.174064-7.931865,9.50039-16.416753,14.206501-24.653689.151462-.265149.249244-.562714.413532-.818495,2.964404-4.614809,5.071113-5.326439,9.46499-1.907079,8.473828,6.594341,16.628808,13.598471,24.911593,20.438028.793374.655119,1.555814,1.347766,2.975083,2.581465,6.616249-9.907311,13.496696-19.401984,19.494005-29.425072,5.651765-9.445591,11.128885-18.792108,20.068101-25.68181,2.233659-1.721528,3.46865-4.806593,4.991838-7.366586,2.423447-4.072997,4.514841-8.353482,7.087052-12.325818,4.144803-6.40099,7.884949-6.675544,14.089147-2.122538,7.411808,5.439204,10.783683,13.03551,12.647628,21.618617.633552,2.917414,1.014021,5.938538,2.062454,8.702799.962774,2.53835,2.452273,4.956477,4.087324,7.145521,5.187175,6.94475,10.428049,13.857444,15.892267,20.584264,3.305407,4.069254,7.219284,7.641197,10.574627,11.673835,3.54973,4.266339,7.46087,8.451958,9.977292,13.313086,5.529736,10.681969,14.156584,18.46032,22.729581,26.389107,1.728311,1.598473,3.495765,3.154611,5.42842,4.895273,5.340632-8.511528,10.691715-16.73313,15.724825-25.144976,5.342076-8.928177,11.232539-11.183023,19.957245-4.381374,7.170754,5.5902,13.840473,11.903507,21.388485,16.906254,7.201764,4.773264,10.69658,11.247629,12.9599,19.157414,3.071535,10.734034,10.314343,17.654082,21.124324,20.547705,2.861263.765936,5.949254,1.204684,8.89325,1.047407,9.865069-.527029,16.36803,4.223908,20.463638,12.669729,4.672801,9.63612,8.919434,19.479282,13.61386,29.104362,3.38852,6.9476,7.353359,13.575137,14.163386,18.514912H0ZM212.137759,172.816741c-1.354055-4.7189-3.601642-8.876968-6.854035-12.300204-3.347306-3.523147-4.697142-7.500091-4.027925-12.152809.554866-3.857747,1.26146-7.714771,2.237953-11.484807.973206-3.757532-.273528-6.272359-3.2138-8.589511-4.358591-3.434866-8.641023-7.009222-12.616959-10.872974-3.063117-2.976604-3.202-6.765052-1.257831-10.568378,1.125124-2.200996,2.219047-4.420423,3.42297-6.578,1.370321-2.455731,1.358007-4.883378-.562885-6.88309-4.782289-4.978481-9.623425-9.910599-14.642075-14.648234-3.253571-3.071365-3.545283-2.956234-6.033887.663233-6.965859,10.131169-13.525445,20.56055-20.863033,30.412168-8.008573,10.752484-16.463931,21.199423-25.181853,31.388243-7.861472,9.187872-16.944757,17.179991-27.364284,24.567688,1.442916-.171832,2.252062-.194349,3.025779-.371558,9.437808-2.161852,19.017891-2.789001,28.658845-2.525467,9.470082.258821,18.779544,1.238792,26.710039,7.263217.639765.485985,1.48034.715886,2.240557,1.033783,8.325691,3.48142,16.88894,3.132968,25.503494,1.487238,6.953451-1.328346,13.764238-3.909241,21.035188-2.112467,3.161223.781176,6.343803,1.476065,9.783742,2.271929ZM277.145422,93.032912c1.687362,1.718031,2.85239,2.893434,4.005009,4.080921,1.074427,1.106939,2.007141,2.400019,3.228565,3.305902,2.825236,2.095366,5.281841,1.145893,5.751903-2.349132.221901-1.649702-.163794-3.493543-.691773-5.113317-3.208993-9.844986-9.128395-18.175277-15.014507-26.522023-1.540157-2.184008-3.502169-4.305368-4.253208-6.765964-2.058274-6.743485-3.78858-13.607763-5.226603-20.512115-.858379-4.121204-.85798-8.415589-1.360934-12.618063-.544358-4.548304-2.553342-5.50133-6.407801-3.148188-6.056575,3.697544-10.95217,8.768012-13.943101,15.017075-6.177976,12.907819-15.016122,23.895677-23.543933,35.174335-3.586346,4.743184-6.460017,10.022898-9.702681,15.02954-1.075662,1.660856-.518877,2.777353.843444,3.926628,3.23816,2.731768,6.388096,5.567741,9.598875,8.332362,7.822186,6.735276,15.992596,12.497745,26.92833,13.209527,5.01255.326258,9.766356,2.333209,13.310993,6.47064,3.025323,3.531261,6.113599,7.080725,9.617953,10.10831,3.239357,2.798616,6.892475,5.249995,10.686053,7.2388,3.85786,2.022494,7.574576.481767,9.561803-3.435265,2.772108-5.463992,1.542019-10.688582-1.622054-15.495175-2.550245-3.874088-5.485843-7.494562-8.251338-11.226898-2.994845-4.041796-4.732979-8.427218-3.514995-14.707899ZM421.776411,173.961132c-.327474-1.239438-.464628-1.917187-.689987-2.564212-.202975-.582875-.462233-1.154842-.765499-1.692778-8.104645-14.377214-19.125202-25.837927-33.988608-33.242383-8.584436-4.276485-10.097383-6.569734-9.426246-16.230746.397438-5.72078.257358-11.390274-2.894136-16.494432-1.893397-3.066538-3.335924-3.061826-5.117021-.063902-2.784991,4.687662-5.217274,9.637678-8.451007,13.992336-3.906656,5.260978-4.393744,9.775991-.507989,15.459984,4.079609,5.967516,7.371031,12.548479,13.268714,16.95049,14.524873,10.841336,31.064906,17.679487,48.571778,23.885644Z" style="fill: #000; stroke-width: 0px;"/>
</svg>