<?xml version="1.0" encoding="UTF-8"?>
<svg id="Layer_1" data-name="Layer 1" xmlns="http://www.w3.org/2000/svg" width="503.682352" height="207.101071" viewBox="0 0 503.682352 207.101071">
  <path d="M233.014443,15.467185c-.497712.443919-.805384.584754-.88194.805689-5.307679,15.312541-16.17959,27.019419-25.805621,39.483142-29.3412,37.990613-58.648745,76.011482-88.466569,113.626508-6.84539,8.635425-15.681653,15.6928-23.601671,23.47644-.426253-.326768-.852482-.653511-1.27871-.980253,1.361387-2.90176,2.102958-6.39487,4.20102-8.593851,6.166133-6.462653,10.43931-14.703103,18.443505-19.481998,2.400361-1.433141,4.673446-3.476796,6.299156-5.746207,11.342188-15.833361,22.54793-31.765635,33.633767-47.779457,1.026331-1.482585,1.634704-3.934131,1.211574-5.630005-2.729471-10.939764-5.713569-21.819566-8.865921-32.645752-.402142-1.380999-2.090516-2.667759-3.493929-3.411637-2.130992-1.129509-4.534377-1.745243-7.183719-2.711081,1.376928-5.491318,2.711181-10.812395,4.04541-16.133471-7.289358,5.953126-13.04233,12.856549-17.066726,21.159235-16.296147,33.620259-39.560263,61.617258-69.162137,84.240115-5.852239,4.472489-13.013421,7.328404-19.778657,10.484752-7.563199,3.528638-15.354867,6.541827-20.069314,14.092965-.464806.744453-1.416555,1.512066-2.244177,1.64778-4.190151.687214-8.414007,1.169034-12.62602,1.722883-.107913-.343057-.21585-.68609-.323763-1.029147.594406-.63927,1.090719-1.426296,1.797935-1.895573,9.877061-6.553995,19.626121-13.325401,29.777772-19.425933,3.024275-1.817448,7.232216-1.591816,10.831234-2.551832,2.498455-.666477,5.683112-1.054656,7.195512-2.770668,16.138039-18.310691,32.234826-36.6707,47.768464-55.491267,3.567161-4.32196,5.03806-10.412898,7.306048-15.760807,7.325462-17.273548,19.937066-30.402299,33.390732-42.896278,2.29-2.126602,4.274627-1.897472,6.266.357099,3.971352,4.496224,8.054015,8.896809,11.942116,13.463389,6.605104,7.757706,13.15384,15.565456,19.597212,23.457552,1.880237,2.30304,4.196272,2.65032,6.028138.968011,2.950118-2.709232,6.021341-5.680274,7.81353-9.17106,3.28395-6.396395,5.39253-13.388686,8.543407-19.863831,1.785717-3.669748,4.610333-6.848733,7.071359-10.171451,3.295094-4.448754,6.981111-8.6352,9.978477-13.270936,4.947388-7.651524,9.187635-15.768852,14.288384-23.309421,3.287648-4.860219,6.133302-4.966876,9.737117-.348904,3.385291,4.337925,6.673039,9.196319,8.282608,14.361944,1.97081,6.32469,4.997259,11.724391,9.102084,16.681648,4.956433,5.985755,9.777943,12.112146,15.105061,17.755617,9.256895,9.806657,16.54128,20.579252,18.991613,34.120467.162256.896906.603401,1.74332,1.084423,3.086818,17.701609-14.980127,36.062187-28.950545,41.995804-53.821951,2.732919,4.527105,5.616201,8.971762,8.155832,13.604799,2.483713,4.530927,4.357979,9.405112,6.959274,13.860387,5.008652,8.578436,11.510391,15.855747,19.857312,21.416621,5.992283,3.992219,10.557992,9.081017,13.822953,15.736098,4.421242,9.012136,10.676423,16.747931,19.262906,21.056824,5.991734-6.171437,12.142225-12.084838,17.759775-18.467266,2.882083-3.274574,4.812216-7.386941,7.685803-11.932634,2.077798,1.887703,4.910309,3.767211,6.831148,6.329987,7.18999,9.592968,14.493315,19.142913,21.003898,29.194915,15.926086,24.589285,30.373078,50.135013,47.871055,73.716162.994974,1.340875.372984,3.881564.503559,5.863832-.50086.102735-1.00177.20547-1.502681.308155-.704343-.9072-1.439317-1.792464-2.10858-2.724872-16.861795-23.494254-31.920833-48.117517-46.556166-73.046837-5.906383-10.060696-13.508785-19.13107-20.423984-28.590248-1.534262-2.098644-5.736781-1.621447-8.1241,1.212181-5.354402,6.355271-10.658584,12.774601-15.584184,19.461736-3.302489,4.483557-5.878399,9.497753-8.856176,14.226155-3.356058,5.329096-5.942562,10.822938-7.152962,17.179408-.74262,3.900052-3.101955,7.82304-5.663274,10.983786-7.540088,9.304576-15.207352,18.55606-23.48961,27.190785-5.050028,5.264912-10.797553,10.429388-17.236878,13.593981-4.30481,2.115609-10.469543,1.310419-15.633555.595622-6.421935-.888986-12.67022-3.032178-19.181403-4.681282,8.721204-2.774391,17.16402-5.375242,25.545871-8.159752,4.757398-1.580423,8.121401-4.941967,11.703229-8.464483,4.971624-4.889275,11.154347-8.575263,16.953392-12.581298,2.327503-1.607831,5.0128-2.697765,7.9511-4.241936-1.027306-.617983-1.793113-1.022502-2.499604-1.512541-5.567379-3.861502-11.194574-7.64173-16.665658-11.635673-7.598354-5.546883-15.138542-11.178587-22.566744-16.950203-2.044917-1.588918-3.852421-1.950263-6.329438-1.308895-6.324591,1.637587-12.835374,2.637803-19.041784,4.614524-2.902821.924464-5.834275,3.05971-7.7779,5.4416-5.065919,6.208214-11.025871,8.719222-19.135779,7.996405-4.46027-.397523-7.266996-1.646931-10.203997-5.023915-4.383214-5.03998-6.934088-10.245379-5.834874-16.955225.043525-.265732.029583-.547228.002049-.817282-1.052341-10.317134,1.187413-19.878522,5.82553-29.151592,4.993061-9.982721,3.518464-21.023596,4.210414-31.698327.22392-3.453136-.89858-5.764495-3.598368-8.018966-15.134144-12.637587-27.361021-27.66511-36.295252-45.300453-.364189-.718894-.772303-1.415577-1.322735-2.419566ZM334.021506,52.238196c-.272842-.115902-.545684-.231828-.818526-.347755-1.01901,1.065424-2.085144,2.089925-3.049636,3.202594-9.016284,10.40163-17.878307,20.941398-27.079883,31.176084-4.261834,4.74032-6.399797,10.120134-6.524725,16.273432-.033131,1.634064,1.084722,3.896005,2.409156,4.862092,18.920704,13.801549,37.993619,27.394206,56.968991,41.121278,6.030011,4.362184,11.881276,8.971337,17.814344,13.467461.32831-.232353.65657-.464705.98488-.697058-3.04239-5.360676-6.11931-10.702264-9.101135-16.096419-.686653-1.242212-1.799159-2.934789-1.431372-3.958965,1.889607-5.261689,2.518043-11.315326,8.143838-14.522742,4.356729-2.48385,5.580821-6.161294,5.377939-11.202223-.275341-6.843236-.267345-13.139419-5.276597-18.954782-11.022623-12.796537-21.355945-26.187122-31.941171-39.358895-.648325-.806763-1.039948-1.819796-1.902799-3.368214-3.723296,7.104895-6.722911,12.828841-9.722525,18.552762-.215675-.10301-.4314-.206044-.647076-.309054,1.932082-6.613207,3.864214-13.226389,5.796297-19.839596Z" style="fill: #000; stroke-width: 0px;"/>
  <path d="M172.536256,192.450698c0-6.921961-.097269-13.169425.098093-19.40772.031682-1.011234,1.152333-2.329973,2.12537-2.914952,6.509034-3.912994,13.124807-7.648001,19.684637-11.477248,3.657834-2.135246,7.212977-4.113342,11.809418-3.823176,1.828792.115452,4.297664-1.275017,5.585019-2.754379,4.815264-5.533392,9.754507-11.076802,13.646355-17.24764,2.045916-3.243868,2.073101-7.783965,2.911665-11.759869.917419-4.349717,1.719305-8.723844,3.065626-13.009727,0,12.379576.13892,24.762275-.13842,37.13563-.045524,2.033236-1.980204,3.997391-2.93905,6.041644-3.82039,8.145161-9.735917,10.913406-19.052577,10.548487-7.880441-.308704-15.697968,3.735532-20.201438,10.931869-4.270055,6.823349-9.396914,12.559787-16.594699,17.737079Z" style="fill: #000; stroke-width: 0px;"/>
  <path d="M54.429685,178.820515c4.569756-4.137027,8.143289-8.373291,12.604758-11.216189,11.601838-7.392863,23.504627-14.330764,35.475951-21.117486,4.448576-2.521951,9.595599-3.804063,14.077206-6.279544,1.988999-1.098628,4.213912-3.629974,4.452499-5.72497,1.222743-10.738392,9.121898-17.688335,14.556678-26.149695-.687827,2.155733-1.389321,4.307269-2.059858,6.468374-.726155,2.340391-1.40921,4.694199-2.136614,7.034215-1.131595,3.640217-2.789361,7.20026-3.331398,10.924224-1.454284,9.991315-8.376954,14.654659-16.867716,17.186903-9.971881,2.974014-17.889026,9.094784-25.972549,15.080514-3.943169,2.919874-8.084098,5.728718-11.439082,9.25106-5.32352,5.589131-11.649585,5.364674-19.359875,4.542595Z" style="fill: #000; stroke-width: 0px;"/>
  <path d="M441.496678,167.980263v-29.302322c.132423-.037876.264847-.075777.39727-.113653.858403,4.076965,1.489888,8.220413,2.657712,12.206736.736274,2.513456,1.991848,4.995008,3.521813,7.126756,2.137863,2.978761,4.419193,6.015611,7.214776,8.333416,12.211385,10.124406,17.287598,24.86496,24.998288,37.899071.178397.301609.139369.731761.279988,1.566332-6.081332-4.035092-11.876029-7.777869-17.52656-11.726915-.974936-.681368-1.570341-2.168275-1.943576-3.403217-1.731898-5.730567-3.47399-11.466755-4.894768-17.27862-.602102-2.462938-1.923337-3.299033-4.18338-3.602316-3.483285-.467454-6.942284-1.115643-10.521563-1.705269Z" style="fill: #000; stroke-width: 0px;"/>
  <path d="M229.932426,52.983199c-3.357208,5.183064-6.848288,10.286528-10.002163,15.590465-1.173721,1.973849-1.619963,4.398511-2.289126,6.649934-1.097065,3.69146-1.57239,7.672186-3.247771,11.068332-5.70355,11.561595-14.426754,20.284864-26.088657,25.954169-.666115.323795-1.361312.587727-2.329627.373588,3.683994-2.961098,7.480372-5.794126,11.030144-8.908202,9.345993-8.198902,15.649546-17.989194,15.108609-30.990701-.123379-2.966344.702793-5.088199,2.932054-7.094627,4.796575-4.317088,9.35054-8.903705,14.003798-13.380017.29423.245669.58851.491363.882739.737058Z" style="fill: #000; stroke-width: 0px;"/>
  <path d="M399.0237,170.663762c-2.452481,9.096033-4.714173,17.611184-7.084801,26.09593-.25845.924789-.966641,2.095122-1.769826,2.435706-4.848095,2.055921-9.784689,3.9033-15.004269,5.459938,10.977299-5.816112,11.281024-18.856045,18.742207-26.979994,1.821596-1.983417,3.208244-4.366257,5.11669-7.011579Z" style="fill: #000; stroke-width: 0px;"/>
</svg>