<?xml version="1.0" encoding="UTF-8"?>
<svg id="Layer_1" data-name="Layer 1" xmlns="http://www.w3.org/2000/svg" width="510.144877" height="157.548049" viewBox="0 0 510.144877 157.548049">
  <path d="M410.724827,0c9.045804.518489,17.646645,2.529312,26.285258,4.934704,13.194522,3.674015,26.529488,6.907621,39.921707,9.784315,8.585548,1.844231,17.374672,2.755943,26.084871,3.999245,5.78067.82516,8.864937,5.902535,6.104248,10.684999-9.227747,15.985528-14.131633,33.519915-18.646043,51.206675-2.352691,9.217718-3.769232,18.79667-7.186683,27.599819-17.492138,45.058604-72.586606,63.172037-113.653304,37.694397-7.641866-4.741041-16.216848-6.015717-24.849197-7.106374-3.108129-.392628-6.276585-.339255-9.419296-.418795-5.807068-.146976-8.589736-4.685517-6.805006-10.247856,2.292787-7.146029,4.108065-14.447142,6.061788-21.699531,1.439135-5.342086-.784832-10.36463-1.599867-15.484581-6.483196-40.727116,20.527643-80.178846,60.917368-88.633941,5.514461-1.154386,11.185582-1.56052,16.784156-2.313075ZM477.702254,79.367923c.451841-36.590425-29.449295-66.918444-66.421377-67.369651-37.013043-.451706-67.159523,29.062643-67.718147,66.298129-.550939,36.72497,29.231771,67.256931,66.024523,67.685409,37.407285.435664,67.652325-29.142817,68.115002-66.613887Z" style="fill: #000; stroke-width: 0px;"/>
  <path d="M178.268892,78.272635c-.449612,4.100015-.414338,9.886295-1.835451,15.289554-2.071208,7.875107-1.130485,15.376798.913134,22.907693,1.038207,3.825948,2.466526,7.560789,3.929061,11.253479,2.371174,5.986859-.669749,10.65178-7.066796,10.61374-8.660996-.051528-17.155342,1.148833-25.401885,3.759588-2.758672.873402-5.477516,2.121757-7.940717,3.642314-47.468837,29.302704-109.140623,1.318442-118.900634-53.603383C18.092296,70.339622,12.023174,49.05952.995197,29.545012c-2.46775-4.366819-.143254-9.44604,4.73546-10.330989,14.109596-2.559322,28.324497-4.616525,42.330048-7.647246,12.048513-2.607219,23.757637-6.781433,35.805045-9.395357,43.337986-9.402965,86.414335,20.602553,93.078533,64.533457.502466,3.312185.76977,6.660067,1.324609,11.567758ZM32.351309,79.049187c.090606,37.266342,30.335205,67.131627,67.797169,66.946841,36.604258-.180559,66.370925-30.2719,66.340627-67.064229-.030394-36.897749-30.082041-67.031203-66.768798-66.950568-37.36031.082114-67.458989,30.046306-67.368998,67.067956Z" style="fill: #000; stroke-width: 0px;"/>
  <path d="M432.114152,78.728338c-.041192,17.592005-4.986693,33.137681-12.912405,47.806113-3.589019,6.642276-12.034277,6.523081-15.670289-.13664-17.199223-31.502309-17.002641-63.025003.203999-94.454727,3.314894-6.055025,11.855062-6.185459,15.201541-.121788,8.169404,14.80242,13.117211,30.55809,13.177154,46.907043Z" style="fill: #000; stroke-width: 0px;"/>
  <path d="M119.464366,79.898612c.172298,15.107823-4.709475,31.518602-13.195963,46.911846-3.451361,6.260292-11.913353,6.204115-15.345357-.149512-12.502044-23.14466-17.081662-47.404532-8.93733-73.036333,2.239597-7.048468,5.485412-13.786538,8.428217-20.59846,1.535764-3.554935,4.349576-5.609083,8.359887-5.566201,3.854036.04123,6.334414,2.083908,8.09363,5.450887,7.274561,13.922851,11.971701,28.55157,12.596916,46.987774Z" style="fill: #000; stroke-width: 0px;"/>
</svg>