<?xml version="1.0" encoding="UTF-8"?>
<svg id="Layer_1" data-name="Layer 1" xmlns="http://www.w3.org/2000/svg" width="498.545645" height="415.403377" viewBox="0 0 498.545645 415.403377">
  <path d="M193.131035,179.59557c3.092717-6.19413,5.993357-11.975893,8.869999-17.769575,16.865883-33.968668,33.697182-67.954574,50.644315-101.882653,1.329455-2.661574,3.122009-5.272441,5.260731-7.320678,17.321673-16.588765,34.776967-33.037996,52.192978-49.528229,4.919478-4.658002,9.198362-4.07261,12.258205,1.860003,16.979466,32.920533,33.905823,65.868431,50.85778,98.803151,16.816392,32.671421,33.355353,65.49074,50.626005,97.920358,5.659486,10.626995,7.736997,21.904918,9.907908,33.346455,4.961353,26.148317,9.879715,52.304789,14.847118,78.451972.196956,1.036847.600843,2.074666,1.102523,3.007525,15.870966,29.510418,31.766381,59.007657,47.657079,88.507488,3.033234,5.630932.063588,10.375093-6.588817,10.37927-39.22681.024773-78.453585.020488-117.680395.020452-120.531472-.000036-241.062944-.002484-361.594409-.005041-1.67127-.000036-3.346299.056206-5.013081-.033882-4.437295-.239804-7.191065-3.671668-6.317675-8.056554,3.855593-19.357233,7.786225-38.699488,11.663716-58.052365,3.29917-16.466406,6.516392-32.949446,9.907445-49.396804.377561-1.831189,1.380035-3.695648,2.557254-5.175052,12.730081-15.997563,25.560818-31.915012,38.333837-47.878549.845373-1.056506,1.642388-2.232717,2.13008-3.482723,17.707961-45.387107,35.376432-90.789606,53.051124-136.189711.284947-.731943.564818-1.46637.871973-2.189041,2.590074-6.093905,7.892194-6.962988,12.118418-1.80251,12.268494,14.980592,24.440049,30.040597,36.644766,45.073399,7.929974,9.767535,15.849434,19.543622,23.781551,29.309429.488448.601365,1.046515,1.146181,1.909576,2.083865ZM331.96419,174.191569c23.375432,16.312801,46.515416,32.461286,69.655401,48.609772.195768-.163128.391572-.326274.58734-.489402-30.683265-59.753588-61.366567-119.507176-92.086451-179.332039-.67192.434501-.948451.559462-1.157433.756139-10.018737,9.428245-20.044567,18.849072-30.021373,28.321524-.82628.784503-1.42246,1.869428-1.947004,2.905195-15.530577,30.665447-31.040325,61.341435-46.546148,92.019421-1.085654,2.147939-2.115335,4.32418-3.533763,7.230454,16.717986-5.351827,32.628001-10.445018,48.759908-15.609214,7.799288,21.450083,15.490088,42.601742,23.451658,64.498145,11.201014-16.683238,21.952378-32.696734,32.837866-48.909995ZM89.955514,255.770177c12.506786-3.075542,23.127139-8.646199,34.576734-12.823957,6.15744,13.461527,12.26132,26.805978,18.651164,40.775576.801652-1.534026,1.314026-2.431023,1.751074-3.363271,6.297145-13.432595,12.641333-26.843695,18.818955-40.331128,1.066048-2.32754,2.067303-2.962193,4.613673-2.127902,15.117455,4.953143,30.292287,9.731186,45.451402,14.55692.957308.304724,1.944718.514895,2.918139.769065.117616-.198757.235249-.397513.352865-.596234-28.316424-34.515554-56.632847-69.031109-85.386076-104.079075-13.975685,35.893366-27.695021,71.128333-41.747932,107.220005Z" style="fill: #000; stroke-width: 0px;"/>
</svg>